<svg width="231" height="94" viewBox="0 0 231 94" fill="none" xmlns="http://www.w3.org/2000/svg">
<g id="waiters/cuate">
<g id="background-complete">
<path id="Vector" d="M98.611 3.86035H64.9575V50.4014H98.611V3.86035Z" fill="#B3ADEB"/>
<path id="Vector_2" d="M81.0028 5.92773H66.792V26.3495H81.0028V5.92773Z" fill="#E8E6F9"/>
<path id="Vector_3" d="M96.7767 5.92773H82.5659V26.3495H96.7767V5.92773Z" fill="#E8E6F9"/>
<path id="Vector_4" d="M81.0028 27.9131H66.792V48.3349H81.0028V27.9131Z" fill="#E8E6F9"/>
<path id="Vector_5" d="M96.7767 27.9131H82.5659V48.3349H96.7767V27.9131Z" fill="#E8E6F9"/>
<path id="Vector_6" d="M193.667 3.86035H160.013V50.4014H193.667V3.86035Z" fill="#B3ADEB"/>
<path id="Vector_7" d="M176.058 5.92773H161.847V26.3495H176.058V5.92773Z" fill="#E8E6F9"/>
<path id="Vector_8" d="M191.832 5.92773H177.622V26.3495H191.832V5.92773Z" fill="#E8E6F9"/>
<path id="Vector_9" d="M176.058 27.9131H161.847V48.3349H176.058V27.9131Z" fill="#E8E6F9"/>
<path id="Vector_10" d="M191.832 27.9131H177.622V48.3349H191.832V27.9131Z" fill="#E8E6F9"/>
<path id="Vector_11" d="M51.6197 15.0046L54.9314 14.9337L56.6239 14.916C57.1881 14.916 57.7548 14.916 58.319 14.916H58.4303V15.0299L58.4455 17.8609V17.9874H58.319L54.9693 17.952C53.8536 17.952 52.7354 17.9241 51.6197 17.9115H51.5488V17.8432C51.5488 17.3625 51.5691 16.8869 51.5817 16.4137L51.6197 15.0046ZM51.6197 15.0046L51.6551 16.434C51.6551 16.9046 51.6829 17.3701 51.688 17.8331L51.6197 17.7647C52.7354 17.7647 53.8536 17.7243 54.9693 17.7243L58.319 17.699L58.1925 17.8255V14.9944L58.3063 15.1083C57.7548 15.1083 57.2033 15.1083 56.6492 15.0931L54.9845 15.0653L51.6197 15.0046Z" fill="#B3ADEB"/>
<path id="Vector_12" d="M55.3565 11.4352L58.6783 11.3745L60.3633 11.3467C60.9249 11.3467 61.4916 11.3467 62.0558 11.3467H62.1671V11.4605V14.2915V14.418H62.0406L58.691 14.4029C57.5753 14.4029 56.457 14.375 55.3413 14.3624H55.2856V14.2941C55.2856 13.8134 55.3059 13.3378 55.3185 12.8647L55.3565 11.4352ZM55.3565 11.4352L55.3919 12.8672C55.4046 13.3378 55.4197 13.8033 55.4248 14.2662L55.3565 14.1979C56.4722 14.1979 57.5904 14.1575 58.7061 14.1575L62.0558 14.1398L61.9293 14.2662L61.9445 11.4352L62.0558 11.5491C61.5043 11.5491 60.9527 11.5491 60.4012 11.5339L58.7264 11.5061L55.3565 11.4352Z" fill="#B3ADEB"/>
<path id="Vector_13" d="M114.345 73.8965L117.665 73.8256L119.35 73.7978C119.914 73.7852 120.478 73.7978 121.045 73.7852H121.156V73.899L121.171 76.73V76.8565H121.045L117.695 76.8413C116.577 76.8413 115.461 76.8135 114.345 76.7983H114.274V76.73C114.274 76.2493 114.297 75.7712 114.307 75.3006L114.345 73.8965ZM114.345 73.8965L114.381 75.3259C114.381 75.799 114.408 76.2645 114.414 76.7275L114.345 76.6592C115.461 76.6465 116.577 76.6187 117.695 76.6162L121.045 76.601L120.918 76.7275L120.931 73.8965L121.045 74.0103C120.491 74.0103 119.942 74.0103 119.387 73.9951L117.723 73.9673L114.345 73.8965Z" fill="#B3ADEB"/>
<path id="Vector_14" d="M118.082 70.3213L121.401 70.2504L123.086 70.2226C123.65 70.21 124.217 70.2226 124.781 70.21H124.892V70.3213L124.907 73.1523V73.2788H124.781L121.431 73.2636C120.313 73.2636 119.197 73.2358 118.082 73.2206H118.011V73.1523C118.011 72.6716 118.034 72.1934 118.046 71.7229L118.082 70.3213ZM118.082 70.3213L118.117 71.7532C118.117 72.2238 118.145 72.6893 118.15 73.1523L118.082 73.084C119.197 73.0713 120.313 73.0435 121.431 73.041L124.781 73.0258L124.654 73.1523L124.667 70.3213L124.781 70.4351C124.229 70.4351 123.678 70.4351 123.124 70.42L121.469 70.3972L118.082 70.3213Z" fill="#B3ADEB"/>
<path id="Vector_15" d="M47.8829 11.4352L51.2022 11.3745L52.8871 11.3467C53.4513 11.3467 54.018 11.3467 54.5822 11.3467H54.6935V11.4605L54.7087 14.2915V14.418H54.5822L51.2325 14.4029C50.1143 14.4029 48.9986 14.375 47.8829 14.3624H47.812V14.2941C47.812 13.8134 47.8348 13.3378 47.8449 12.8647L47.8829 11.4352ZM47.8829 11.4352L47.9183 12.8672C47.9183 13.3378 47.9461 13.8033 47.9512 14.2662L47.8829 14.1979C48.9986 14.1979 50.1143 14.1575 51.2325 14.1575L54.5822 14.1398L54.4557 14.2662V11.4352L54.5695 11.5491C54.018 11.5491 53.4665 11.5491 52.9124 11.5339L51.2477 11.5061L47.8829 11.4352Z" fill="#B3ADEB"/>
<path id="Vector_16" d="M138.587 30.9956L135.268 31.0664L133.583 31.0943C133.019 31.1069 132.452 31.0943 131.888 31.1095H131.776V30.9956L131.761 28.1646V28.0381H131.888L135.237 28.0533C136.356 28.0533 137.471 28.0836 138.587 28.0963H138.658V28.1646C138.658 28.6453 138.635 29.1234 138.622 29.5965L138.587 30.9956ZM138.587 30.9956L138.552 29.5662C138.552 29.0931 138.524 28.6276 138.519 28.1646L138.587 28.2329C137.471 28.2481 136.356 28.2734 135.237 28.2759L131.888 28.2911L132.014 28.1646L132.002 30.9956L131.888 30.8843C132.439 30.8843 132.991 30.8843 133.545 30.8843L135.21 30.9121L138.587 30.9956Z" fill="#B3ADEB"/>
<path id="Vector_17" d="M207.005 77.9805L203.685 78.0488L202 78.0792C201.436 78.0792 200.869 78.0792 200.305 78.0792H200.194V77.9679L200.179 75.1368V75.0078H200.305L203.655 75.023C204.771 75.023 205.889 75.0508 207.005 75.0635H207.075V75.1318C207.075 75.6099 207.055 76.0881 207.042 76.5612L207.005 77.9805ZM207.005 77.9805L206.969 76.5486C206.956 76.078 206.941 75.6125 206.936 75.1495L207.005 75.2178C205.889 75.2178 204.771 75.2583 203.655 75.2583L200.305 75.276L200.432 75.1495L200.419 77.9805L200.305 77.8667C200.857 77.8667 201.408 77.8667 201.962 77.8793L203.627 77.9097L207.005 77.9805Z" fill="#B3ADEB"/>
<path id="Vector_18" d="M210.741 81.5509L207.422 81.6192L205.737 81.6495C205.173 81.6495 204.606 81.6495 204.042 81.6622H203.931V81.5509L203.916 78.7199V78.5908H204.042L207.392 78.606C208.51 78.606 209.626 78.6338 210.741 78.6465H210.812V78.7148C210.812 79.193 210.789 79.6711 210.779 80.1442L210.741 81.5509ZM210.741 81.5509L210.706 80.1189C210.706 79.6483 210.678 79.1828 210.673 78.7199L210.741 78.7882C209.626 78.8008 208.51 78.8286 207.392 78.8286L204.042 78.8438L204.169 78.7199V81.5509L204.055 81.437C204.606 81.437 205.158 81.437 205.712 81.4497L207.377 81.48L210.741 81.5509Z" fill="#B3ADEB"/>
<path id="Vector_19" d="M200.277 11.4352L203.597 11.3745L205.281 11.3467C205.846 11.3467 206.412 11.3467 206.977 11.3467H207.088V11.4605L207.103 14.2915V14.418H206.982L203.632 14.4029C202.514 14.4029 201.398 14.375 200.282 14.3624H200.211V14.2941C200.211 13.8134 200.234 13.3378 200.247 12.8647L200.277 11.4352ZM200.277 11.4352L200.313 12.8672C200.313 13.3378 200.34 13.8033 200.346 14.2662L200.277 14.1979C201.393 14.1979 202.509 14.1575 203.627 14.1575L206.982 14.1398L206.855 14.2662V11.4352L206.969 11.5491C206.417 11.5491 205.866 11.5491 205.312 11.5339L203.647 11.5061L200.277 11.4352Z" fill="#B3ADEB"/>
<path id="Vector_20" opacity="0.19" d="M111.863 16.9833C114.72 16.9833 117.036 14.6669 117.036 11.8095C117.036 8.95211 114.72 6.63574 111.863 6.63574C109.005 6.63574 106.689 8.95211 106.689 11.8095C106.689 14.6669 109.005 16.9833 111.863 16.9833Z" fill="#B3ADEB"/>
<path id="Vector_21" opacity="0.19" d="M115.595 13.5479C116.085 11.4857 114.811 9.4166 112.749 8.92646C110.686 8.43632 108.617 9.71072 108.127 11.7729C107.637 13.8351 108.911 15.9042 110.974 16.3943C113.036 16.8845 115.105 15.6101 115.595 13.5479Z" fill="#B3ADEB"/>
<path id="Vector_22" d="M117.512 12.6631L113.937 18.7552H109.788L106.211 12.6631H117.512Z" fill="#B3ADEB"/>
<path id="Vector_23" d="M114.909 20.8057H108.819L109.788 18.7539H113.937L114.909 20.8057Z" fill="#B3ADEB"/>
<path id="Vector_24" d="M114.583 17.6533L113.938 18.7539H109.786L109.298 17.9215L114.583 17.6533Z" fill="#C7C7C7"/>
<path id="Vector_25" opacity="0.19" d="M129.312 16.9833C132.169 16.9833 134.486 14.6669 134.486 11.8095C134.486 8.95211 132.169 6.63574 129.312 6.63574C126.455 6.63574 124.138 8.95211 124.138 11.8095C124.138 14.6669 126.455 16.9833 129.312 16.9833Z" fill="#B3ADEB"/>
<path id="Vector_26" opacity="0.19" d="M130.949 16.1409C132.866 15.2377 133.689 12.9511 132.786 11.0335C131.882 9.11588 129.596 8.29353 127.678 9.1967C125.761 10.0999 124.938 12.3865 125.841 14.3041C126.745 16.2217 129.031 17.0441 130.949 16.1409Z" fill="#B3ADEB"/>
<path id="Vector_27" d="M134.961 12.6631L131.387 18.7552H127.237L123.663 12.6631H134.961Z" fill="#B3ADEB"/>
<path id="Vector_28" d="M132.358 20.8057H126.269L127.238 18.7539H131.387L132.358 20.8057Z" fill="#B3ADEB"/>
<path id="Vector_29" d="M132.034 17.6533L131.387 18.7539H127.237L126.747 17.9215L132.034 17.6533Z" fill="#C7C7C7"/>
<path id="Vector_30" opacity="0.19" d="M146.761 16.9833C149.619 16.9833 151.935 14.6669 151.935 11.8095C151.935 8.95211 149.619 6.63574 146.761 6.63574C143.904 6.63574 141.587 8.95211 141.587 11.8095C141.587 14.6669 143.904 16.9833 146.761 16.9833Z" fill="#B3ADEB"/>
<path id="Vector_31" opacity="0.19" d="M149.475 15.3769C150.974 13.8781 150.974 11.4481 149.475 9.94924C147.976 8.45043 145.546 8.45044 144.047 9.94925C142.549 11.4481 142.549 13.8781 144.047 15.3769C145.546 16.8757 147.976 16.8757 149.475 15.3769Z" fill="#B3ADEB"/>
<path id="Vector_32" d="M152.413 12.6631L148.836 18.7552H144.687L141.112 12.6631H152.413Z" fill="#B3ADEB"/>
<path id="Vector_33" d="M149.807 20.8057H143.718L144.687 18.7539H148.836L149.807 20.8057Z" fill="#B3ADEB"/>
<path id="Vector_34" d="M149.484 17.6533L148.839 18.7539H144.687L144.199 17.9215L149.484 17.6533Z" fill="#C7C7C7"/>
</g>
<g id="Plant">
<path id="Vector_35" d="M194.104 64.7411C194.394 65.7964 194.585 66.8762 194.676 67.9668C194.645 68.0199 194.651 68.2198 194.676 68.1666C194.676 68.3437 194.952 68.3108 194.952 68.1363C194.952 68.0224 194.952 67.9086 194.952 67.7972C195.582 67.0155 196.497 66.5323 197.229 65.8391C197.823 65.3039 198.257 64.6135 198.481 63.8455C199.093 61.7304 198.519 59.4889 199.258 57.3789C199.893 55.5598 201.029 53.9786 202 52.319C203.012 50.5758 203.771 48.7441 203.847 46.7025C203.908 45.139 203.72 43.0568 202.531 41.8956C201.266 40.6533 199.705 41.5844 198.736 42.6925C195.936 45.9081 194.64 49.9712 194.114 54.1254C193.826 56.4251 193.527 58.74 193.608 61.06C193.651 62.3004 193.817 63.5335 194.104 64.7411Z" fill="#1A1452"/>
<path id="Vector_36" d="M194.663 68.8044C194.51 66.6344 194.535 64.4555 194.739 62.2897C194.739 62.2897 194.739 62.2897 194.739 62.2644C194.703 60.4935 194.564 58.7503 194.633 56.9869C194.719 55.0799 194.979 53.1847 195.409 51.3249C195.411 51.3216 195.413 51.3188 195.416 51.3168C195.419 51.3148 195.422 51.3138 195.426 51.3138C195.429 51.3138 195.433 51.3148 195.436 51.3168C195.439 51.3188 195.441 51.3216 195.442 51.3249C195.099 53.152 194.894 55.0025 194.83 56.8604C194.795 57.8539 194.802 58.849 194.853 59.8458C194.87 60.1696 194.901 60.4935 194.921 60.8198C195.65 55.8809 197.433 51.1567 200.15 46.9683C200.186 46.9101 200.287 46.9683 200.252 47.0316C198.308 50.2176 196.87 53.685 195.986 57.3108C197.335 54.8137 199.369 52.7569 200.879 50.3635C200.879 50.3509 200.909 50.3635 200.902 50.3635C199.546 53.0351 197.304 55.1401 195.877 57.7712C195.629 58.8439 195.429 59.9251 195.275 61.0146C195.074 62.5084 194.966 64.0133 194.951 65.5205C195.771 63.9873 196.624 62.52 197.294 60.8983C197.312 60.8552 197.375 60.8831 197.36 60.9261C196.788 62.6136 196.022 64.4275 194.946 65.8646C194.946 66.9322 194.972 67.9998 195.035 69.0649C195.202 71.9086 195.688 74.7143 195.913 77.5504C195.914 77.5679 195.909 77.5853 195.898 77.5988C195.887 77.6123 195.871 77.6209 195.853 77.6225C195.836 77.6242 195.819 77.6189 195.805 77.6077C195.791 77.5966 195.783 77.5805 195.781 77.5631C195.212 74.672 194.838 71.7458 194.663 68.8044Z" fill="#434059"/>
<path id="Vector_37" d="M197.684 46.8772C197.684 46.8569 197.722 46.8772 197.714 46.8772C197.208 48.3142 196.902 49.7689 196.528 51.2439C196.524 51.2567 196.515 51.2676 196.504 51.2747C196.492 51.2817 196.479 51.2844 196.466 51.2822C196.452 51.2801 196.44 51.2732 196.432 51.2629C196.423 51.2526 196.419 51.2396 196.419 51.2262C196.573 49.7436 197.115 48.2535 197.684 46.8772Z" fill="#434059"/>
<path id="Vector_38" d="M184.49 52.8991C184.837 53.7414 185.237 54.561 185.687 55.3532C186.62 57.0508 187.597 58.6092 187.774 60.5851C187.852 61.4681 187.88 62.3561 188.151 63.2087C188.396 63.9412 188.748 64.6334 189.196 65.263C190.208 66.7405 191.473 68.0131 192.416 69.5437C193.392 71.1431 194.114 72.8842 194.557 74.7048C194.579 74.8035 194.736 74.7782 194.711 74.6795C194.711 74.6795 194.711 74.6643 194.711 74.6567C194.713 74.6493 194.713 74.6414 194.711 74.634C194.86 70.3938 194.521 66.1181 193.226 62.055C192.656 60.2683 191.969 58.5206 191.172 56.8231C190.478 55.3506 189.616 53.9339 188.389 52.8333C187.599 52.1224 185.887 50.7739 184.763 51.4874C184.24 51.8264 184.277 52.3602 184.49 52.8991Z" fill="#1A1452"/>
<path id="Vector_39" d="M188.766 62.5111C189.514 63.7415 190.338 64.9244 191.232 66.053C191.642 66.5894 192.06 67.1207 192.469 67.657C192.662 67.91 192.879 68.163 193.056 68.4362C192.945 67.9884 192.836 67.5432 192.722 67.0979C192.176 64.955 191.65 62.797 190.833 60.7325C189.998 58.7363 189.014 56.8063 187.888 54.9592C187.86 54.9086 187.938 54.8731 187.969 54.9212C188.864 56.3962 189.775 57.8686 190.526 59.422C190.944 60.2885 191.307 61.1799 191.614 62.0911C191.268 60.1574 190.785 58.2509 190.167 56.3861C190.167 56.3709 190.185 56.3582 190.192 56.3734C191.003 58.2603 191.509 60.2635 191.693 62.3087C191.878 62.8568 192.047 63.4126 192.199 63.9759C192.867 66.349 193.464 68.7449 193.998 71.1509C194.001 69.5734 193.858 67.999 193.573 66.4477C193.573 66.4403 193.575 66.4332 193.581 66.428C193.586 66.4228 193.593 66.4199 193.6 66.4199C193.608 66.4199 193.615 66.4228 193.62 66.428C193.625 66.4332 193.628 66.4403 193.628 66.4477C194.042 68.0711 194.181 69.7524 194.038 71.4216C194.243 72.3349 194.445 73.2533 194.64 74.1691C195.058 76.1248 195.569 78.1133 195.812 80.0993C195.812 80.1499 195.748 80.1601 195.733 80.112C195.442 79.0418 195.268 77.9337 195.03 76.8483C194.792 75.763 194.544 74.6776 194.291 73.5948C193.924 72.0161 193.532 70.4425 193.145 68.8689C192.892 68.292 192.373 67.781 191.994 67.2977C191.576 66.7665 191.159 66.2377 190.752 65.6988C189.99 64.7008 189.308 63.6442 188.712 62.5389C188.705 62.506 188.74 62.4782 188.766 62.5111Z" fill="#434059"/>
<path id="Vector_40" d="M188.573 60.708C189.505 61.9007 190.313 63.1849 190.985 64.5409C190.985 64.5586 190.967 64.5763 190.957 64.5586C190.145 63.2936 189.345 62.0059 188.536 60.7333C188.513 60.708 188.558 60.6777 188.573 60.708Z" fill="#434059"/>
<path id="Vector_41" d="M206.629 56.9136C206.078 57.8598 205.45 58.9983 205.688 60.1342C205.837 60.8527 206.364 61.4371 206.447 62.1708C206.662 63.7925 205.046 64.8627 203.879 65.6267C200.967 67.5394 196.972 69.242 196.441 73.1458C196.421 73.2824 196.188 73.2495 196.188 73.1129C196.187 73.1045 196.187 73.096 196.188 73.0876C196.188 73.0876 196.173 73.0749 196.173 73.0648C195.792 71.0943 195.811 69.0673 196.229 67.1042C196.664 65.0929 197.542 63.2865 198.576 61.5181C200.33 58.5277 202.187 55.4664 204.836 53.1692C205.569 52.5367 207.072 51.3983 207.656 52.8277C208.241 54.2571 207.302 55.765 206.629 56.9136Z" fill="#1A1452"/>
<path id="Vector_42" d="M203.963 63.2584C202.033 65.3481 198.961 66.5195 197.299 68.8622C198.286 65.2722 199.915 62.0465 202.42 59.2484C202.431 59.2338 202.436 59.2157 202.435 59.1975C202.434 59.1792 202.426 59.1621 202.413 59.1492C202.4 59.1363 202.383 59.1284 202.365 59.1271C202.346 59.1258 202.328 59.1312 202.314 59.1421C200.536 60.8675 199.114 62.9243 198.127 65.1963C198.585 63.609 199.188 62.0669 199.928 60.5893C199.956 60.5311 199.877 60.483 199.844 60.5387C198.927 62.1525 198.272 63.9012 197.901 65.72C195.71 71.0203 195.508 77.2389 195.969 82.8276C195.969 82.9085 196.095 82.9085 196.093 82.8276C195.969 78.4229 196.039 73.9424 197.104 69.6414L197.173 69.3733C198.982 66.8433 202.038 65.6846 204.004 63.3014C204.016 63.2685 203.983 63.2381 203.963 63.2584Z" fill="#434059"/>
<path id="Vector_43" d="M204.411 61.4672C203.399 62.3982 202.387 63.3495 201.375 64.278C201.375 64.278 201.375 64.3058 201.39 64.2982C202.539 63.523 203.574 62.5905 204.464 61.5279C204.505 61.4824 204.451 61.4242 204.411 61.4672Z" fill="#434059"/>
<path id="Vector_44" d="M204.57 57.435C203.673 58.9055 202.657 60.3008 201.534 61.6069C201.519 61.622 201.534 61.6473 201.559 61.6322C202.818 60.4349 203.856 59.0242 204.623 57.4653C204.624 57.4588 204.623 57.4521 204.62 57.4462C204.617 57.4403 204.612 57.4353 204.607 57.4321C204.601 57.4288 204.594 57.4273 204.588 57.4278C204.581 57.4284 204.575 57.4308 204.57 57.435Z" fill="#434059"/>
<path id="Vector_45" d="M200.007 86.7697H191.129L192.326 74.8232H198.64L200.007 86.7697Z" fill="#455A64"/>
<path id="Vector_46" d="M198.862 76.7662H192.127L192.325 74.8232H198.64L198.862 76.7662Z" fill="#434059"/>
<path id="Vector_47" d="M199.73 73.5H191.407V75.4076H199.73V73.5Z" fill="#455A64"/>
</g>
<g id="character-2">
<path id="Vector_48" d="M150.283 96.6562H160.969C160.969 96.6562 159.519 71.6425 159.605 71.2048C159.712 70.6482 165.725 44.2178 165.725 44.2178H156.668C156.668 44.2178 149.217 68.7305 148.932 71.0986C148.469 74.9213 150.283 96.6562 150.283 96.6562Z" fill="#434059"/>
<path id="Vector_49" d="M164.162 46.4508C163.317 49.4615 162.581 52.505 161.814 55.5359C161.048 58.5668 160.296 61.6078 159.525 64.6437C159.15 66.1364 158.743 67.6215 158.419 69.1243C158.116 70.6178 158.006 72.1441 158.093 73.6655C158.222 76.79 158.389 79.912 158.54 83.0264C158.692 86.1408 158.859 89.2754 159.046 92.3872C159.069 92.7794 159.094 93.169 159.117 93.5586C159.117 93.5864 159.16 93.5839 159.158 93.5586C158.925 87.3079 158.652 81.0589 158.338 74.8116C158.262 73.2456 158.166 71.6745 158.406 70.1211C158.634 68.6461 159.051 67.204 159.418 65.762C160.182 62.726 160.941 59.6901 161.695 56.6541C162.545 53.2564 163.438 49.8637 164.197 46.4458C164.195 46.4434 164.192 46.4416 164.189 46.4405C164.185 46.4395 164.182 46.4392 164.178 46.4397C164.175 46.4402 164.172 46.4414 164.169 46.4434C164.166 46.4453 164.164 46.4478 164.162 46.4508Z" fill="#37474F"/>
<path id="Vector_50" d="M157.812 44.2178C157.812 44.2178 159.185 52.5894 159.279 52.8576C159.279 52.8576 159.785 53.1106 160.711 53.5255L164.655 96.6132L175.392 96.6562L170.507 52.9436C170.507 52.9436 171.203 46.5808 169.533 44.2178H157.812Z" fill="#434059"/>
<path id="Vector_51" d="M158.834 52.5966C159.901 53.0437 160.928 53.5821 161.903 54.2056C161.911 54.21 161.917 54.2175 161.92 54.2265C161.923 54.2355 161.922 54.2453 161.918 54.2537C161.913 54.2621 161.906 54.2684 161.897 54.2712C161.888 54.2741 161.878 54.2732 161.87 54.2689C160.835 53.7629 159.777 53.2822 158.771 52.7205C158.758 52.7104 158.748 52.6961 158.745 52.68C158.741 52.6639 158.743 52.6471 158.751 52.6324C158.758 52.6177 158.771 52.6061 158.786 52.5996C158.801 52.593 158.818 52.592 158.834 52.5966Z" fill="#37474F"/>
<path id="Vector_52" d="M159.228 47.8049C159.398 48.8169 159.481 49.8289 159.603 50.8409L159.686 51.567C159.692 51.7902 159.751 52.0088 159.858 52.2045C160.078 52.541 160.468 52.7105 160.82 52.8547C160.829 52.8574 160.836 52.8636 160.841 52.8719C160.845 52.8802 160.846 52.89 160.844 52.899C160.841 52.9081 160.835 52.9157 160.827 52.9202C160.818 52.9247 160.809 52.9257 160.799 52.923C160.422 52.8303 160.074 52.6441 159.787 52.3816C159.466 52.0426 159.476 51.5265 159.426 51.0888C159.283 50.004 159.204 48.9117 159.19 47.8176C159.191 47.8136 159.193 47.8098 159.196 47.8067C159.198 47.8036 159.202 47.8013 159.206 47.8C159.21 47.7987 159.214 47.7985 159.218 47.7994C159.222 47.8002 159.225 47.8022 159.228 47.8049Z" fill="#37474F"/>
<path id="Vector_53" d="M160.445 48.1109C160.481 48.8319 160.562 49.5529 160.622 50.2715C160.653 50.6282 160.675 50.9849 160.698 51.3391C160.721 51.6933 160.761 52.0728 160.751 52.4346C160.751 52.4406 160.749 52.4464 160.745 52.4507C160.74 52.4549 160.735 52.4573 160.729 52.4573C160.723 52.4573 160.717 52.4549 160.712 52.4507C160.708 52.4464 160.706 52.4406 160.706 52.4346C160.648 52.0905 160.64 51.7338 160.612 51.3897C160.584 51.0456 160.557 50.6585 160.536 50.2942C160.496 49.5656 160.476 48.8319 160.41 48.1033C160.407 48.0856 160.445 48.0856 160.445 48.1109Z" fill="#37474F"/>
<path id="Vector_54" d="M161.376 59.4869C161.258 58.2219 161.149 56.9569 161.005 55.6919C160.924 54.9835 160.86 54.2701 160.752 53.5668C160.752 53.501 160.635 53.5187 160.638 53.5845C160.666 54.8494 160.817 56.1144 160.939 57.3794C161.06 58.6444 161.166 59.9094 161.333 61.1743C161.43 61.8878 161.533 62.5987 161.617 63.3147C161.617 63.34 161.66 63.34 161.657 63.3147C161.549 62.0396 161.495 60.762 161.376 59.4869Z" fill="#37474F"/>
<path id="Vector_55" d="M171.056 84.6023C170.688 81.7789 170.325 78.9554 169.966 76.132C169.25 70.4826 168.574 64.8282 167.894 59.1813C167.512 56.0087 167.112 52.8387 166.742 49.6636C166.742 49.6434 166.71 49.6434 166.712 49.6636C167.241 55.3585 167.81 61.0484 168.483 66.7282C169.156 72.4079 169.874 78.032 170.656 83.6789C171.094 86.8489 171.524 90.0215 172.086 93.1713C172.086 93.1773 172.088 93.1831 172.092 93.1874C172.097 93.1916 172.102 93.194 172.108 93.194C172.114 93.194 172.12 93.1916 172.125 93.1874C172.129 93.1831 172.131 93.1773 172.131 93.1713C171.815 90.3074 171.42 87.4485 171.056 84.6023Z" fill="#37474F"/>
<path id="Vector_56" d="M158.323 30.361C158.477 34.2951 157.685 40.0583 157.356 42.0797C156.992 44.3263 153.648 48.5868 150.779 51.2888C150.154 51.8783 145.84 46.6337 146.404 45.9101C147.725 44.2125 151.335 41.5687 152.036 40.3138C152.489 39.4992 154.412 33.5588 155.553 30.7C157.053 26.9607 158.252 28.5242 158.323 30.361Z" fill="#F7A9A0"/>
<path id="Vector_57" d="M150.778 51.2888C150.133 51.8125 146.584 54.393 145.569 54.7903C144.555 55.1875 141.554 56.1134 141.172 55.3671C140.79 54.6207 141.648 54.2792 141.648 54.2792C141.648 54.2792 140.317 54.4715 140.003 53.6847C139.69 52.8978 141.036 52.4197 141.036 52.4197C141.036 52.4197 139.657 52.5158 139.399 51.7088C139.141 50.9017 140.58 50.6386 140.58 50.6386C140.58 50.6386 139.315 50.7853 139.389 50.0314C139.467 49.1257 141.815 49.1156 142.903 48.5944C143.156 48.4755 147.735 45.8418 147.735 45.8418L150.778 51.2888Z" fill="#F7A9A0"/>
<path id="Vector_58" d="M140.456 50.6562C142.182 50.6562 142.936 50.3425 144.368 49.4267C144.395 49.409 144.428 49.4444 144.401 49.4671C143.082 50.4918 142.192 51.0079 140.451 50.7321C140.368 50.7271 140.373 50.6562 140.456 50.6562Z" fill="#434059"/>
<path id="Vector_59" d="M140.899 52.4102C142.692 52.2432 143.512 51.9194 145.083 51.0693C145.103 51.0693 145.126 51.0946 145.106 51.1098C143.636 52.0712 142.735 52.5671 140.921 52.4988C140.84 52.4962 140.818 52.4178 140.899 52.4102Z" fill="#434059"/>
<path id="Vector_60" d="M141.726 54.2333C143.449 53.9449 144.365 53.6312 145.774 52.6116C145.809 52.5863 145.847 52.6344 145.814 52.6597C144.471 53.8412 143.333 54.2435 141.734 54.2839C141.63 54.289 141.617 54.251 141.726 54.2333Z" fill="#434059"/>
<path id="Vector_61" d="M144.534 53.7884H140.319L140.066 45.9102H144.787L144.534 53.7884Z" fill="#B3ADEB"/>
<path id="Vector_62" opacity="0.5" d="M144.982 54.2763H139.872L139.563 44.7207H145.291L144.982 54.2763Z" fill="#B3ADEB"/>
<path id="Vector_63" d="M148.673 45.2903C148.673 45.2903 146.543 44.9108 145.569 44.9513C144.595 44.9917 141.028 46.4692 141.306 47.2636C141.663 48.2756 143.892 47.8329 144.954 47.4686C144.954 47.4686 145.779 49.8265 147.449 49.8493C149.118 49.872 148.673 45.2903 148.673 45.2903Z" fill="#F7A9A0"/>
<path id="Vector_64" d="M141.496 47.5119C142.49 48.2077 143.857 47.6409 144.914 47.3652C144.929 47.3602 144.945 47.3591 144.961 47.3618C144.977 47.3645 144.992 47.3709 145.005 47.3806C145.017 47.3903 145.027 47.403 145.034 47.4175C145.041 47.432 145.044 47.4479 145.043 47.4638C145.455 48.4303 146.308 49.6725 147.401 49.8977C147.408 49.8977 147.414 49.9003 147.419 49.9051C147.424 49.9098 147.426 49.9163 147.426 49.923C147.426 49.9297 147.424 49.9361 147.419 49.9409C147.414 49.9456 147.408 49.9483 147.401 49.9483C146.207 49.8622 145.261 48.7136 144.871 47.6258C143.791 47.9268 142.399 48.4354 141.491 47.522C141.483 47.517 141.489 47.5094 141.496 47.5119Z" fill="#434059"/>
<path id="Vector_65" d="M147.118 44.4428L151.753 51.0207C151.753 51.0207 156.812 45.8419 157.607 43.2613C158.401 40.6808 158.313 36.9086 158.346 31.6235C158.379 26.3384 156.198 28.3978 155.219 31.2086C154.328 33.774 151.957 40.023 151.846 40.2355C151.735 40.448 147.118 44.4428 147.118 44.4428Z" fill="#B3ADEB"/>
<path id="Vector_66" d="M152.873 49.2402C152.223 48.2282 151.51 47.2769 150.801 46.313C150.093 45.3491 149.367 44.4054 148.605 43.4947C148.585 43.4719 148.557 43.4947 148.572 43.5225C149.222 44.5345 149.916 45.506 150.627 46.4674C151.337 47.4287 152.038 48.3901 152.805 49.3034C152.84 49.3515 152.906 49.2908 152.873 49.2402Z" fill="#434059"/>
<path id="Vector_67" d="M155.734 46.9154C155.987 47.1431 170.509 45.4885 170.578 45.3974C170.757 45.1191 165.3 29.9166 161.599 27.5941C160.802 27.0881 158.024 27.5107 157.657 27.7055C157.245 27.923 156.258 30.1469 155.886 31.9027C155.175 35.4092 155.507 46.713 155.734 46.9154Z" fill="#B3ADEB"/>
<path id="Vector_68" d="M169.652 42.4929L163.985 45.4504L159.082 42.8901L155.623 46.1866C155.418 43.6567 155.266 34.9157 155.876 31.8898C156.087 30.9195 156.398 29.9734 156.802 29.0664C156.951 28.7704 157.055 28.5756 157.055 28.5756L158.209 34.0276L161.457 27.4902C164.354 29.2511 167.974 37.9238 169.652 42.4929Z" fill="#434059"/>
<path id="Vector_69" d="M158.659 38.469C158.607 37.8129 158.551 37.1593 158.492 36.5083C158.467 36.187 158.439 35.8656 158.414 35.5418C158.389 35.218 158.346 34.8562 158.313 34.5146H158.292C158.292 34.8587 158.292 35.2003 158.292 35.5469C158.292 35.8935 158.313 36.1895 158.325 36.5108C158.351 37.1762 158.386 37.8415 158.437 38.5069C158.538 39.8174 158.675 41.128 158.905 42.4233C158.905 42.4293 158.907 42.4351 158.911 42.4394C158.916 42.4437 158.921 42.4461 158.928 42.4461C158.934 42.4461 158.939 42.4437 158.944 42.4394C158.948 42.4351 158.95 42.4293 158.95 42.4233C158.89 41.1001 158.771 39.7845 158.659 38.469Z" fill="#37474F"/>
<path id="Vector_70" d="M160.096 40.9995C160.096 41.0686 160.076 41.1361 160.037 41.1935C159.999 41.2509 159.944 41.2957 159.881 41.3221C159.817 41.3485 159.747 41.3554 159.679 41.342C159.611 41.3285 159.549 41.2952 159.5 41.2464C159.451 41.1976 159.418 41.1354 159.405 41.0676C159.391 40.9999 159.398 40.9297 159.425 40.8659C159.451 40.8021 159.496 40.7476 159.553 40.7092C159.611 40.6709 159.678 40.6504 159.747 40.6504C159.793 40.6501 159.839 40.6589 159.881 40.6763C159.924 40.6937 159.962 40.7194 159.995 40.7519C160.027 40.7844 160.053 40.823 160.07 40.8655C160.088 40.908 160.097 40.9536 160.096 40.9995Z" fill="#37474F"/>
<path id="Vector_71" d="M159.906 38.538C159.906 38.6066 159.886 38.6736 159.848 38.7306C159.81 38.7876 159.755 38.832 159.692 38.8582C159.629 38.8845 159.559 38.8913 159.492 38.878C159.425 38.8646 159.363 38.8316 159.314 38.7831C159.266 38.7346 159.233 38.6729 159.22 38.6056C159.206 38.5384 159.213 38.4687 159.239 38.4054C159.266 38.342 159.31 38.2879 159.367 38.2498C159.424 38.2117 159.491 38.1914 159.559 38.1914C159.605 38.1914 159.65 38.2004 159.692 38.2178C159.734 38.2352 159.772 38.2607 159.805 38.2929C159.837 38.3251 159.862 38.3633 159.88 38.4054C159.897 38.4474 159.906 38.4925 159.906 38.538Z" fill="#37474F"/>
<path id="Vector_72" d="M159.719 36.0761C159.72 36.1454 159.7 36.2132 159.661 36.271C159.623 36.3288 159.569 36.374 159.505 36.4007C159.441 36.4274 159.371 36.4346 159.303 36.4212C159.235 36.4078 159.172 36.3745 159.123 36.3255C159.074 36.2765 159.041 36.2141 159.028 36.1461C159.014 36.0782 159.021 36.0078 159.048 35.9439C159.075 35.88 159.12 35.8255 159.178 35.7873C159.236 35.7491 159.303 35.729 159.373 35.7295C159.465 35.7295 159.553 35.766 159.618 35.831C159.683 35.896 159.719 35.9842 159.719 36.0761Z" fill="#37474F"/>
<path id="Vector_73" d="M161.852 30.6495C163.441 33.4451 167.739 41.9154 171.395 41.9103C173.983 41.9103 180.69 31.4768 181.284 30.1435C181.77 29.0505 174.846 26.8976 174.504 27.6135C173.798 29.1011 171.792 32.9467 170.889 33.7234C170.287 34.2294 165.793 29.6754 163.069 28.0031C160.731 26.5737 160.668 28.5774 161.852 30.6495Z" fill="#F7A9A0"/>
<path id="Vector_74" d="M183.283 27.8569C183.959 27.566 189.084 27.4142 189.082 26.301C189.079 25.1878 182.547 25.499 182.547 25.499L183.283 27.8569Z" fill="#F7A9A0"/>
<path id="Vector_75" d="M173.963 29.7935C173.801 27.9264 175.122 25.6671 175.901 25.447C176.442 25.2952 182.253 25.5457 183.162 25.49C184.07 25.4344 187.311 25.5179 187.387 26.3148C187.491 27.4406 183.885 27.4862 183.283 27.8556C182.681 28.2249 180.708 31.1065 180.708 31.1065L173.963 29.7935Z" fill="#F7A9A0"/>
<path id="Vector_76" d="M187.47 26.3305C187.414 26.1221 187.282 25.9419 187.101 25.8245C186.704 25.5462 186.18 25.5235 185.712 25.4855C185.004 25.4202 184.293 25.4143 183.584 25.4678C183.566 25.4678 183.566 25.4931 183.584 25.4931C184.115 25.4931 184.647 25.4931 185.175 25.5513C185.662 25.571 186.145 25.6448 186.615 25.7714C186.827 25.8279 187.019 25.9427 187.169 26.1028C187.223 26.1592 187.261 26.2283 187.28 26.3036C187.299 26.379 187.298 26.4579 187.278 26.5329C187.123 27.0237 186.157 27.1679 185.712 27.2691C185.127 27.3982 184.523 27.5221 183.941 27.6335C183.916 27.6335 183.941 27.6765 183.953 27.6714C184.561 27.5525 185.203 27.5044 185.816 27.3956C186.321 27.3046 186.827 27.2034 187.242 26.8745C187.328 26.8144 187.394 26.7315 187.435 26.6353C187.475 26.5391 187.487 26.4334 187.47 26.3305Z" fill="#434059"/>
<path id="Vector_77" d="M174.023 28.433L180.186 33.7105C180.186 33.7105 174.593 42.0088 171.225 42.1504C167.858 42.2921 163.299 33.9559 161.887 31.1426C160.475 28.3293 160.407 25.9613 164.275 28.6911C168.144 31.4209 170.519 33.5157 170.752 33.4752C170.985 33.4347 174.023 28.433 174.023 28.433Z" fill="#B3ADEB"/>
<path id="Vector_78" d="M178.899 34.8786C178.041 34.0387 177.128 33.2594 176.235 32.4751C175.342 31.6909 174.418 30.9268 173.475 30.1982C173.452 30.1805 173.429 30.2159 173.449 30.2336C174.304 31.0736 175.195 31.8755 176.098 32.6598C177.001 33.4441 177.897 34.2259 178.843 34.9494C178.899 34.9925 178.932 34.9191 178.899 34.8786Z" fill="#434059"/>
<path id="Vector_79" d="M172.481 25.5379L191.375 25.5049L191.373 24.4625L172.479 24.4955L172.481 25.5379Z" fill="#C7C7C7"/>
<path id="Vector_80" d="M188.098 24.4818H183.531C183.314 24.4818 183.531 16.9653 183.531 16.1961C183.531 15.427 185.161 12.9705 185.161 12.5353V8.23438H186.466V12.5353C186.466 12.9705 188.098 15.4296 188.098 16.1961C188.098 16.9627 188.313 24.4818 188.098 24.4818Z" fill="#1A1452"/>
<path id="Vector_81" d="M188.191 19.5049H183.435V22.9532H188.191V19.5049Z" fill="#455A64"/>
<path id="Vector_82" d="M186.324 7.6875H185.305V8.22385H186.324V7.6875Z" fill="#455A64"/>
<path id="Vector_83" d="M180.24 12.75C180.24 17.5569 180.24 19.0268 178.944 19.0268C177.649 19.0268 177.651 17.567 177.651 12.75H180.24Z" fill="#B3ADEB"/>
<path id="Vector_84" d="M179.127 18.082H178.762V24.0097H179.127V18.082Z" fill="#B3ADEB"/>
<path id="Vector_85" d="M180.968 24.4963H176.923L178.944 23.8916L180.968 24.4963Z" fill="#B3ADEB"/>
<path id="Vector_86" d="M176.194 12.75C176.194 17.5569 176.194 19.0268 174.899 19.0268C173.603 19.0268 173.606 17.567 173.606 12.75H176.194Z" fill="#B3ADEB"/>
<path id="Vector_87" d="M175.081 18.082H174.717V24.0097H175.081V18.082Z" fill="#B3ADEB"/>
<path id="Vector_88" d="M176.923 24.4963H172.877L174.899 23.8916L176.923 24.4963Z" fill="#B3ADEB"/>
<path id="Vector_89" d="M158.358 29.9004C158.943 29.9282 160.41 28.9111 160.835 27.8106C160.735 27.2386 160.607 26.672 160.45 26.113C160.326 25.5716 160.197 24.9619 160.124 24.4002C160.111 24.2839 156.706 25.7259 156.706 25.7259C157.001 26.4035 157.212 27.1147 157.333 27.8435C157.341 27.9209 157.341 27.9989 157.333 28.0763V28.1167C157.328 28.5772 157.566 29.8649 158.358 29.9004Z" fill="#F7A9A0"/>
<path id="Vector_90" d="M157.341 28.1172C157.463 28.1178 157.585 28.1076 157.705 28.0868C159.555 27.8009 159.919 25.4455 159.982 24.4209C159.347 24.6031 156.693 25.7264 156.693 25.7264C156.988 26.4039 157.199 27.1151 157.321 27.8439C157.328 27.9213 157.328 27.9993 157.321 28.0767C157.326 28.0909 157.333 28.1044 157.341 28.1172Z" fill="#434059"/>
<path id="Vector_91" d="M159.524 19.8369C160.238 20.9501 160.582 24.6438 159.937 25.671C159.001 27.1586 156.979 27.8442 155.59 26.607C154.244 25.4078 153.88 20.5857 154.647 19.6041C155.775 18.1545 158.472 18.2051 159.524 19.8369Z" fill="#F7A9A0"/>
<path id="Vector_92" d="M156.795 22.835C156.795 22.835 156.815 22.835 156.815 22.8552C156.832 23.1082 156.893 23.3865 157.126 23.4472C156.848 23.4497 156.769 23.0728 156.795 22.835Z" fill="#434059"/>
<path id="Vector_93" d="M156.992 22.551C157.389 22.4827 157.498 23.2822 157.131 23.3454C156.764 23.4087 156.658 22.6092 156.992 22.551Z" fill="#434059"/>
<path id="Vector_94" d="M155.37 22.9639C155.37 22.9639 155.352 22.979 155.355 22.9892C155.398 23.2422 155.403 23.523 155.19 23.6368C155.459 23.5736 155.446 23.1916 155.37 22.9639Z" fill="#434059"/>
<path id="Vector_95" d="M155.117 22.7357C154.715 22.761 154.793 23.563 155.165 23.5403C155.537 23.5175 155.446 22.7155 155.117 22.7357Z" fill="#434059"/>
<path id="Vector_96" d="M157.24 22.105C157.129 22.1114 157.019 22.1114 156.908 22.105C156.791 22.1214 156.672 22.0963 156.572 22.0342C156.543 22.0091 156.524 21.9754 156.517 21.9382C156.511 21.9011 156.516 21.8628 156.534 21.8293C156.577 21.7684 156.637 21.7202 156.705 21.6895C156.773 21.6588 156.849 21.6468 156.923 21.6547C157.078 21.6489 157.229 21.7003 157.348 21.7989C157.372 21.8233 157.388 21.8536 157.394 21.8865C157.401 21.9194 157.399 21.9536 157.388 21.9853C157.377 22.0171 157.357 22.045 157.331 22.0661C157.304 22.0873 157.273 22.1007 157.24 22.105Z" fill="#434059"/>
<path id="Vector_97" d="M154.68 22.3889C154.786 22.3574 154.89 22.3194 154.991 22.2751C155.106 22.2514 155.211 22.19 155.287 22.1005C155.305 22.0674 155.312 22.0295 155.307 21.9922C155.302 21.9549 155.285 21.9202 155.259 21.893C155.198 21.8493 155.126 21.8228 155.051 21.8161C154.975 21.8094 154.9 21.8229 154.832 21.8551C154.683 21.8977 154.556 21.9943 154.475 22.1258C154.458 22.1569 154.451 22.1922 154.454 22.2275C154.457 22.2627 154.47 22.2963 154.492 22.3242C154.513 22.3521 154.543 22.3731 154.576 22.3846C154.61 22.3961 154.646 22.3976 154.68 22.3889Z" fill="#434059"/>
<path id="Vector_98" d="M156.982 24.3394C156.933 24.4454 156.863 24.5401 156.776 24.6177C156.689 24.6952 156.586 24.7538 156.476 24.7897C156.379 24.8247 156.277 24.8435 156.174 24.8454C156.155 24.8478 156.136 24.8478 156.116 24.8454H156.061C156.03 24.8454 156.013 24.8226 156.002 24.7948C156.001 24.7864 156.001 24.7779 156.002 24.7695V24.7467C155.972 24.557 155.952 24.266 155.952 24.266C155.886 24.309 155.552 24.519 155.545 24.4178C155.449 23.5556 155.44 22.686 155.519 21.8221C155.521 21.817 155.524 21.8126 155.528 21.8095C155.533 21.8064 155.538 21.8047 155.543 21.8047C155.549 21.8047 155.554 21.8064 155.558 21.8095C155.562 21.8126 155.566 21.817 155.567 21.8221C155.661 22.619 155.613 23.4261 155.694 24.2281C155.812 24.1505 155.94 24.0908 156.076 24.051C156.104 24.051 156.106 24.6177 156.126 24.7012C156.285 24.6948 156.441 24.6568 156.585 24.5895C156.728 24.5221 156.857 24.4268 156.964 24.309C156.971 24.3014 156.994 24.3166 156.982 24.3394Z" fill="#434059"/>
<path id="Vector_99" d="M156.278 24.7643C156.407 24.8801 156.563 24.9611 156.731 24.9995C156.824 25.0176 156.921 25.0061 157.007 24.9667C157.194 24.8781 157.166 24.6985 157.101 24.5492C157.065 24.4711 157.021 24.3972 156.969 24.3291C156.791 24.5445 156.549 24.6971 156.278 24.7643Z" fill="#434059"/>
<path id="Vector_100" d="M156.731 25.0001C156.825 25.0182 156.921 25.0067 157.007 24.9672C157.194 24.8787 157.167 24.6991 157.101 24.5498C156.998 24.5733 156.906 24.6303 156.839 24.7118C156.772 24.7933 156.734 24.8948 156.731 25.0001Z" fill="#FF9ABB"/>
<path id="Vector_101" d="M154.216 20.9543C155.638 21.7361 157.326 20.1751 157.326 20.1751C157.469 20.4523 157.698 20.6759 157.979 20.8126C158.26 20.9493 158.577 20.9919 158.884 20.9341C158.884 20.9341 159.367 23.163 159.962 23.0997C160.868 23.0061 160.842 19.9044 160.498 19.3276C160.154 18.7507 159.37 18.6723 159.37 18.6723C159.246 18.3178 158.992 18.0238 158.659 17.8501C157.994 17.4377 155.921 18.2852 155.921 18.2852C155.771 18.0119 155.559 17.7779 155.302 17.6021C155.24 17.5582 155.17 17.5271 155.096 17.5109C155.022 17.4948 154.945 17.4937 154.871 17.5079C154.796 17.5221 154.725 17.5512 154.663 17.5935C154.6 17.6358 154.546 17.6903 154.505 17.7539C154.635 17.9096 154.727 18.0931 154.775 18.2903C154.947 18.9379 154.409 18.9911 154.355 18.3915C154.326 18.1679 154.379 17.9412 154.505 17.7539C154.199 17.3896 153.746 17.3061 153.51 17.5414C153.075 17.969 153.035 20.3041 154.216 20.9543Z" fill="#434059"/>
<path id="Vector_102" d="M159.578 22.9123C159.578 22.9123 160.084 21.5613 160.673 21.7131C161.263 21.8649 161.093 23.6738 160.544 24.0583C160.477 24.1125 160.4 24.1525 160.317 24.1761C160.234 24.1996 160.147 24.2061 160.061 24.1952C159.976 24.1844 159.893 24.1563 159.819 24.1128C159.745 24.0693 159.68 24.0112 159.628 23.942L159.578 22.9123Z" fill="#F7A9A0"/>
<path id="Vector_103" d="M160.61 22.2285C160.61 22.2285 160.625 22.2285 160.61 22.2462C160.44 22.3942 160.302 22.5763 160.207 22.7807C160.111 22.9851 160.06 23.2072 160.056 23.4328C160.069 23.3837 160.093 23.3382 160.126 23.2994C160.159 23.2606 160.2 23.2294 160.247 23.208C160.293 23.1866 160.343 23.1755 160.394 23.1754C160.445 23.1753 160.495 23.1863 160.541 23.2076C160.545 23.2076 160.548 23.2089 160.55 23.2113C160.553 23.2137 160.554 23.2169 160.554 23.2203C160.554 23.2236 160.553 23.2268 160.55 23.2292C160.548 23.2316 160.545 23.2329 160.541 23.2329C160.459 23.2292 160.377 23.2516 160.308 23.297C160.239 23.3425 160.186 23.4086 160.157 23.4859C160.105 23.6112 160.067 23.7419 160.043 23.8755C160.043 23.9185 159.96 23.916 159.962 23.8755C159.815 23.3063 160.041 22.436 160.61 22.2285Z" fill="#434059"/>
<path id="Vector_104" d="M157.346 27.8841L158.512 29.7917L160.62 26.7734L161.48 27.4844C161.48 27.4844 159.686 32.018 159.638 31.8359L158.497 30.2117L157.485 31.6436L157.065 28.5469L157.346 27.8841Z" fill="#B3ADEB"/>
<path id="Vector_105" d="M157.192 30.1253C157.139 29.6193 157.073 29.0931 157.045 28.5795C157.045 28.5593 157.07 28.5466 157.078 28.5795C157.262 29.0551 157.452 31.0209 157.533 31.4864C157.576 31.4232 158.482 30.2214 158.495 30.2214C158.725 30.4744 159.56 31.6509 159.623 31.7622C159.906 31.0412 161.014 28.41 161.376 27.7143C161.378 27.711 161.38 27.7082 161.383 27.7062C161.386 27.7042 161.389 27.7031 161.393 27.7031C161.396 27.7031 161.4 27.7042 161.403 27.7062C161.406 27.7082 161.408 27.711 161.409 27.7143C161.179 28.4732 159.722 32 159.689 31.9949C159.26 31.4445 158.861 30.8719 158.492 30.2796C158.348 30.5326 157.455 31.876 157.437 31.7976C157.326 31.2448 157.245 30.6866 157.192 30.1253Z" fill="#434059"/>
<path id="Vector_106" d="M158.864 30.7231C158.869 30.8289 158.843 30.934 158.789 31.0249C158.734 31.1158 158.654 31.1885 158.558 31.2336C158.462 31.2787 158.355 31.2943 158.25 31.2784C158.146 31.2624 158.048 31.2156 157.97 31.144C157.892 31.0723 157.837 30.9791 157.812 30.8761C157.787 30.7731 157.793 30.665 157.83 30.5656C157.867 30.4662 157.932 30.38 158.018 30.3179C158.104 30.2559 158.206 30.2208 158.312 30.2171C158.452 30.2123 158.588 30.2626 158.692 30.3573C158.795 30.4519 158.857 30.5833 158.864 30.7231Z" fill="#1A1452"/>
<path id="Vector_107" d="M158.535 30.485C158.535 30.485 159.962 28.6179 160.225 29.3086C160.306 29.4908 160.337 29.6914 160.314 29.8895C160.291 30.0875 160.215 30.2757 160.094 30.4344C160.094 30.4344 160.567 31.1934 160.238 31.368C159.909 31.5425 158.594 31.1276 158.551 30.9328C158.525 30.7849 158.52 30.6343 158.535 30.485Z" fill="#1A1452"/>
<path id="Vector_108" d="M158.212 30.4877C158.212 30.4877 157.139 28.8179 157 29.4757C156.953 29.651 156.942 29.8338 156.968 30.0134C156.993 30.193 157.055 30.3655 157.149 30.5206C157.149 30.5206 156.868 31.2518 157.103 31.401C157.339 31.5503 158.206 31.0898 158.224 30.895C158.234 30.7592 158.229 30.6227 158.212 30.4877Z" fill="#1A1452"/>
</g>
<g id="Chairs">
<path id="Vector_109" d="M102.85 76.2363L103.487 80.049L107.793 103.309H108.489L105.357 80.049L104.894 76.2363H102.85Z" fill="#B3ADEB"/>
<path id="Vector_110" d="M104.894 76.2363H102.85L103.487 80.049H105.357L104.894 76.2363Z" fill="#A6A6A6"/>
<path id="Vector_111" d="M89.3242 103.309H90.02L94.3259 80.049L94.9635 76.2363H92.9193L92.4563 80.049L89.3242 103.309Z" fill="#B3ADEB"/>
<path id="Vector_112" d="M92.919 76.2363L92.4561 80.049H94.3257L94.9632 76.2363H92.919Z" fill="#A6A6A6"/>
<path id="Vector_113" d="M76.4062 103.309H77.102L81.408 80.049L82.043 76.2363H80.0013L79.5383 80.049L76.4062 103.309Z" fill="#B3ADEB"/>
<path id="Vector_114" d="M79.5381 80.049H81.4077L82.0427 76.2363H80.0011L79.5381 80.049Z" fill="#A6A6A6"/>
<path id="Vector_115" d="M77.5068 78.0279H109.068V74.7036H97.2531L93.2836 51.6025H78.7111L77.5068 78.0279Z" fill="#B3ADEB"/>
<path id="Vector_116" d="M77.5068 78.0279H79.2272L80.3505 51.6025H78.7111L77.5068 78.0279Z" fill="#C7C7C7"/>
<path id="Vector_117" d="M164.59 76.2363L163.955 80.049L159.647 103.309H158.954L162.086 80.049L162.549 76.2363H164.59Z" fill="#B3ADEB"/>
<path id="Vector_118" d="M162.549 76.2363H164.591L163.956 80.049H162.086L162.549 76.2363Z" fill="#A6A6A6"/>
<path id="Vector_119" d="M178.116 103.309H177.423L173.114 80.049L172.479 76.2363H174.521L174.984 80.049L178.116 103.309Z" fill="#B3ADEB"/>
<path id="Vector_120" d="M174.521 76.2363L174.984 80.049H173.114L172.479 76.2363H174.521Z" fill="#A6A6A6"/>
<path id="Vector_121" d="M191.033 103.309H190.34L186.034 80.049L185.396 76.2363H187.438L187.901 80.049L191.033 103.309Z" fill="#B3ADEB"/>
<path id="Vector_122" d="M187.901 80.049H186.034L185.396 76.2363H187.438L187.901 80.049Z" fill="#A6A6A6"/>
<path id="Vector_123" d="M189.933 78.0279H158.374V74.7036H170.186L174.158 51.6025H188.731L189.933 78.0279Z" fill="#B3ADEB"/>
<path id="Vector_124" d="M189.933 78.0279H188.213L187.092 51.6025H188.731L189.933 78.0279Z" fill="#C7C7C7"/>
</g>
<g id="Table">
<path id="Vector_125" d="M157.832 60.8213L157.753 66.8856L156.908 104.837H155.957L155.11 66.8856L155.034 60.8213H157.832Z" fill="#455A64"/>
<path id="Vector_126" d="M157.832 60.8213L157.753 66.8856H155.11L155.034 60.8213H157.832Z" fill="#37474F"/>
<path id="Vector_127" d="M104.02 60.8213L103.941 66.8856L103.096 104.837H102.145L101.298 66.8856L101.222 60.8213H104.02Z" fill="#455A64"/>
<path id="Vector_128" d="M101.222 60.8213H104.02L103.941 66.8856H101.298L101.222 60.8213Z" fill="#37474F"/>
<path id="Vector_129" d="M164.159 58.3115H95.2178V62.2507H164.159V58.3115Z" fill="#455A64"/>
<path id="Vector_130" d="M102.324 58.0293H157.052L129.688 68.7082L102.324 58.0293Z" fill="#B3ADEB"/>
<path id="Vector_131" d="M127.257 45.1353C129.39 47.2225 129.747 50.4482 129.299 53.2792C129.286 53.345 129.188 53.3273 129.188 53.2792C129.188 52.6366 129.208 51.9965 129.205 51.3615C129.193 51.3311 129.183 51.3058 129.172 51.2755C128.598 50.8972 128.123 50.3871 127.786 49.7879C127.432 49.0871 127.28 48.2977 127.027 47.5666C127.002 47.4957 127.078 47.516 127.126 47.5514C128.424 48.5077 128.836 49.5374 129.208 50.9137C129.202 50.1938 129.126 49.4762 128.983 48.7708C128.735 47.4405 128.122 46.2054 127.212 45.2036C127.166 45.1555 127.219 45.0973 127.257 45.1353Z" fill="#434059"/>
<path id="Vector_132" d="M126.858 45.3791C126.491 45.3917 126.26 45.9787 125.975 46.1381C125.945 46.1624 125.91 46.1802 125.873 46.1903C125.835 46.2003 125.796 46.2025 125.758 46.1965C125.72 46.1905 125.683 46.1766 125.651 46.1557C125.619 46.1347 125.591 46.1072 125.57 46.0748C125.286 45.6801 125.674 45.1919 126.04 44.9186C125.8 45.0613 125.546 45.1791 125.281 45.2703C125.245 45.2821 125.207 45.286 125.169 45.2816C125.131 45.2773 125.095 45.2649 125.062 45.2452C125.029 45.2255 125.001 45.1991 124.98 45.1676C124.958 45.1361 124.944 45.1004 124.937 45.0628C124.813 44.524 125.489 44.2861 125.949 44.2735C125.727 44.1166 125.082 43.6916 125.423 43.4841C125.765 43.2767 126.526 43.8813 126.774 44.0812C127.136 44.3747 127.568 44.8149 127.584 45.2754C127.609 45.8218 127.138 45.4929 126.858 45.3791Z" fill="#1A1452"/>
<path id="Vector_133" opacity="0.1" d="M126.858 45.3791C126.491 45.3917 126.26 45.9787 125.975 46.1381C125.945 46.1624 125.91 46.1802 125.873 46.1903C125.835 46.2003 125.796 46.2025 125.758 46.1965C125.72 46.1905 125.683 46.1766 125.651 46.1557C125.619 46.1347 125.591 46.1072 125.57 46.0748C125.286 45.6801 125.674 45.1919 126.04 44.9186C125.8 45.0613 125.546 45.1791 125.281 45.2703C125.245 45.2821 125.207 45.286 125.169 45.2816C125.131 45.2773 125.095 45.2649 125.062 45.2452C125.029 45.2255 125.001 45.1991 124.98 45.1676C124.958 45.1361 124.944 45.1004 124.937 45.0628C124.813 44.524 125.489 44.2861 125.949 44.2735C125.727 44.1166 125.082 43.6916 125.423 43.4841C125.765 43.2767 126.526 43.8813 126.774 44.0812C127.136 44.3747 127.568 44.8149 127.584 45.2754C127.609 45.8218 127.138 45.4929 126.858 45.3791Z" fill="#16151E"/>
<path id="Vector_134" d="M126.964 45.4692C126.493 45.2567 125.592 45.5628 125.516 45.3857C125.362 45.0239 126.081 44.776 126.47 44.7279C126.111 44.6318 125.425 44.4749 125.458 44.1309C125.486 43.7109 126.511 44.0727 127.032 44.4699C127.685 44.9759 127.679 45.4566 127.573 45.5527C127.411 45.6868 127.034 45.5046 126.964 45.4692Z" fill="#1A1452"/>
<path id="Vector_135" d="M132.112 44.9281C129.904 46.9343 129.423 50.1474 129.764 52.991C129.764 53.0543 129.873 53.0416 129.876 52.991C129.901 52.3484 129.904 51.7083 129.931 51.0733L129.967 50.9898C130.555 50.6339 131.05 50.1419 131.409 49.5553C131.791 48.8697 131.96 48.0854 132.262 47.3644C132.289 47.2961 132.213 47.3138 132.163 47.3467C130.83 48.2524 130.392 49.2669 129.954 50.6356C129.99 49.9168 130.092 49.2028 130.26 48.5029C130.56 47.1824 131.22 45.9711 132.168 45.004C132.178 44.9966 132.185 44.9855 132.187 44.9732C132.189 44.9608 132.185 44.9482 132.178 44.9382C132.171 44.9281 132.16 44.9214 132.147 44.9195C132.135 44.9176 132.122 44.9207 132.112 44.9281Z" fill="#434059"/>
<path id="Vector_136" d="M132.504 45.1862C132.871 45.214 133.078 45.8085 133.357 45.9907C133.386 46.0162 133.42 46.0354 133.457 46.0469C133.494 46.0583 133.533 46.0619 133.571 46.0574C133.61 46.0529 133.647 46.0403 133.68 46.0205C133.713 46.0008 133.742 45.9742 133.764 45.9426C134.063 45.5581 133.693 45.0546 133.337 44.7687C133.572 44.9191 133.822 45.0462 134.083 45.1482C134.119 45.161 134.156 45.166 134.194 45.1631C134.232 45.1601 134.269 45.1492 134.302 45.131C134.335 45.1128 134.364 45.0878 134.387 45.0577C134.41 45.0275 134.426 44.9928 134.435 44.9559C134.579 44.4221 133.911 44.1565 133.448 44.1261C133.681 43.9794 134.341 43.5796 134.007 43.3671C133.673 43.1546 132.889 43.7238 132.633 43.9136C132.261 44.1944 131.811 44.6169 131.778 45.0748C131.735 45.6011 132.218 45.2899 132.504 45.1862Z" fill="#1A1452"/>
<path id="Vector_137" opacity="0.1" d="M132.504 45.1862C132.871 45.214 133.078 45.8085 133.357 45.9907C133.386 46.0162 133.42 46.0354 133.457 46.0469C133.494 46.0583 133.533 46.0619 133.571 46.0574C133.61 46.0529 133.647 46.0403 133.68 46.0205C133.713 46.0008 133.742 45.9742 133.764 45.9426C134.063 45.5581 133.693 45.0546 133.337 44.7687C133.572 44.9191 133.822 45.0462 134.083 45.1482C134.119 45.161 134.156 45.166 134.194 45.1631C134.232 45.1601 134.269 45.1492 134.302 45.131C134.335 45.1128 134.364 45.0878 134.387 45.0577C134.41 45.0275 134.426 44.9928 134.435 44.9559C134.579 44.4221 133.911 44.1565 133.448 44.1261C133.681 43.9794 134.341 43.5796 134.007 43.3671C133.673 43.1546 132.889 43.7238 132.633 43.9136C132.261 44.1944 131.811 44.6169 131.778 45.0748C131.735 45.6011 132.218 45.2899 132.504 45.1862Z" fill="#16151E"/>
<path id="Vector_138" d="M132.396 45.2749C132.871 45.0801 133.759 45.4216 133.843 45.2471C134.012 44.8929 133.301 44.6171 132.917 44.5538C133.276 44.4704 133.969 44.3439 133.962 43.9973C133.962 43.5748 132.912 43.8986 132.378 44.2756C131.705 44.7537 131.69 45.2369 131.796 45.3381C131.902 45.4393 132.317 45.3052 132.396 45.2749Z" fill="#1A1452"/>
<path id="Vector_139" d="M129.853 50.2244C129.705 51.2968 129.475 52.3565 129.167 53.3944C129.165 53.4046 129.161 53.4142 129.156 53.4228C129.15 53.4314 129.143 53.4388 129.134 53.4445C129.125 53.4503 129.116 53.4543 129.106 53.4563C129.096 53.4584 129.085 53.4584 129.075 53.4564C129.065 53.4544 129.055 53.4504 129.047 53.4447C129.038 53.439 129.031 53.4316 129.025 53.4231C129.019 53.4145 129.015 53.4049 129.013 53.3947C129.011 53.3846 129.011 53.3742 129.013 53.3641C129.157 52.3875 129.423 51.4286 129.567 50.4496C129.726 49.462 129.783 48.4608 129.737 47.4617C129.643 45.8147 129.198 44.0639 128.122 42.7762C128.1 42.7458 128.15 42.7028 128.173 42.7307C130.324 45.2378 129.982 48.3117 129.979 48.5875C130.286 47.5502 130.599 46.3586 131.75 45.2986C131.798 45.253 131.839 45.2733 131.831 45.3517C131.624 47.277 131.09 48.2814 129.972 49.3111C129.941 49.6223 129.901 49.9259 129.853 50.2244Z" fill="#434059"/>
<path id="Vector_140" d="M128.105 43.0638C127.718 42.8917 127.184 43.3851 126.8 43.418C126.756 43.4279 126.711 43.4285 126.668 43.42C126.624 43.4115 126.583 43.3939 126.546 43.3684C126.51 43.3429 126.479 43.31 126.456 43.272C126.433 43.2339 126.418 43.1914 126.413 43.1473C126.319 42.5957 126.967 42.2845 127.483 42.1859C127.159 42.1656 126.838 42.2517 126.519 42.1656C126.476 42.1596 126.434 42.1445 126.398 42.1212C126.361 42.0979 126.329 42.0671 126.305 42.0307C126.281 41.9943 126.265 41.9532 126.259 41.9101C126.252 41.8671 126.254 41.8231 126.266 41.7811C126.408 41.1587 127.23 41.2498 127.718 41.4724C127.564 41.1967 127.108 40.4301 127.569 40.3871C128.029 40.3441 128.512 41.3535 128.669 41.6849C128.897 42.1732 129.125 42.8487 128.922 43.3345C128.662 43.9012 128.34 43.3218 128.105 43.0638Z" fill="#1A1452"/>
<path id="Vector_141" opacity="0.1" d="M128.105 43.0638C127.718 42.8917 127.184 43.3851 126.8 43.418C126.756 43.4279 126.711 43.4285 126.668 43.42C126.624 43.4115 126.583 43.3939 126.546 43.3684C126.51 43.3429 126.479 43.31 126.456 43.272C126.433 43.2339 126.418 43.1914 126.413 43.1473C126.319 42.5957 126.967 42.2845 127.483 42.1859C127.159 42.1656 126.838 42.2517 126.519 42.1656C126.476 42.1596 126.434 42.1445 126.398 42.1212C126.361 42.0979 126.329 42.0671 126.305 42.0307C126.281 41.9943 126.265 41.9532 126.259 41.9101C126.252 41.8671 126.254 41.8231 126.266 41.7811C126.408 41.1587 127.23 41.2498 127.718 41.4724C127.564 41.1967 127.108 40.4301 127.569 40.3871C128.029 40.3441 128.512 41.3535 128.669 41.6849C128.897 42.1732 129.125 42.8487 128.922 43.3345C128.662 43.9012 128.34 43.3218 128.105 43.0638Z" fill="#16151E"/>
<path id="Vector_142" d="M128.168 43.21C127.789 42.7521 126.701 42.618 126.711 42.3954C126.731 41.9425 127.602 42.0463 128.029 42.193C127.708 41.9122 127.073 41.4062 127.27 41.0596C127.508 40.6345 128.391 41.5276 128.727 42.2031C129.155 43.0506 128.907 43.5516 128.745 43.5971C128.525 43.6604 128.232 43.2859 128.168 43.21Z" fill="#1A1452"/>
<path id="Vector_143" d="M131.267 50.8035L132.216 58.0493H126.445C126.564 57.4092 127.639 50.7959 127.639 50.7959L131.267 50.8035Z" fill="#1A1452"/>
</g>
<g id="character-1">
<path id="Vector_144" d="M101.32 106.168C100.794 106.343 85.7586 106.3 85.1869 105.935C84.9693 105.799 84.8478 103.608 84.777 100.957C84.7593 100.385 84.7492 99.7953 84.7391 99.1855C84.7391 98.4746 84.7188 97.7536 84.7137 97.0553C84.696 93.9156 84.7391 91.1504 84.7391 91.1504H94.5274V97.0553V99.1855L94.4768 100.957C94.4768 100.957 100.225 103.55 100.802 104.018C101.379 104.486 101.844 105.994 101.32 106.168Z" fill="#D3766A"/>
<path id="Vector_145" d="M81.4751 48.748C81.4751 48.748 84.1189 75.6111 84.1821 75.9425C84.1821 75.9856 84.7033 96.0177 84.7033 96.0177L94.5221 96.0557C94.5221 96.0557 94.4892 78.389 94.0844 74.5081C93.5784 69.5595 90.416 48.748 90.416 48.748H81.4751Z" fill="#D3766A"/>
<path id="Vector_146" d="M89.0853 48.7461L84.3568 82.2427C84.2632 78.8399 84.1873 76.0949 84.1797 75.9482C84.119 75.6168 81.4727 48.7512 81.4727 48.7512L89.0853 48.7461Z" fill="#434059"/>
<path id="Vector_147" d="M86.6594 107.239C86.1231 107.376 71.1306 106.26 70.5841 105.855C70.3766 105.706 70.4146 103.51 70.531 100.864C70.5537 100.289 71.9047 91.0879 71.9047 91.0879L81.3238 91.7988L80.2005 101.552C80.2005 101.552 85.7487 104.547 86.2977 105.053C86.8467 105.559 87.1958 107.103 86.6594 107.239Z" fill="#D3766A"/>
<path id="Vector_148" d="M90.4161 48.748C90.4161 48.748 90.0695 52.247 88.6451 54.195C88.215 54.7769 86.8463 55.2602 86.2391 55.713C86.2391 55.713 84.3948 73.9135 83.8939 76.4207C83.6409 77.716 80.6656 97.0727 80.6656 97.0727L71.1479 96.3644C71.1479 96.3644 73.984 77.5187 74.2244 76.1247C74.4647 74.7307 75.7423 58.3088 75.6791 57.909C75.0314 53.0768 77.3463 48.7784 77.3463 48.7784L90.4161 48.748Z" fill="#D3766A"/>
<path id="Vector_149" d="M77.3386 48.748H90.6259C90.6259 48.748 94.0945 72.684 94.2514 74.083C94.4082 75.4821 94.5221 77.878 94.5221 77.878C91.7115 78.923 88.7415 79.4742 85.7431 79.5073C80.1772 79.5857 73.6348 77.372 73.6348 77.372C73.6348 77.372 74.0244 75.9754 74.1003 75.5479C74.1762 75.1203 75.6183 57.9217 75.6183 57.9217C75.6183 57.9217 75.2919 52.3001 77.3386 48.748Z" fill="#434059"/>
<path id="Vector_150" d="M77.3385 48.748H91.1268C91.1268 48.748 93.4366 64.0366 93.5327 64.2972C93.6289 64.5577 92.9913 68.4792 87.6506 68.6866C82.3099 68.8941 74.6846 65.6507 74.6846 65.6507L75.5574 58.0026C75.5574 58.0026 74.7883 53.0363 77.3385 48.748Z" fill="#1A1452"/>
<path id="Vector_151" d="M89.3739 34.0605C93.4901 37.6657 98.9118 45.4832 98.1351 47.2162C97.2673 49.1339 91.5319 44.0816 91.5294 43.7603C91.5294 43.52 89.2853 38.7004 87.5953 35.1863C85.9053 31.6722 88.3543 33.1699 89.3739 34.0605Z" fill="#D3766A"/>
<path id="Vector_152" d="M91.4938 43.7562C91.2914 43.2502 88.2554 36.8772 87.375 34.8609C86.4946 32.8445 87.122 32.1563 89.3484 33.8969C91.5747 35.6376 96.6068 41.6386 97.8971 44.925C99.1393 48.0875 97.4721 48.214 95.1648 46.8807C93.2723 45.7928 91.4938 43.7562 91.4938 43.7562Z" fill="#B3ADEB"/>
<path id="Vector_153" d="M91.1676 44.2032L91.1271 48.7571H77.3389C77.3389 48.7571 80.0636 36.5424 83.6638 33.299C85.4651 31.6773 87.3727 31.9885 88.4707 33.3446C88.7515 33.6887 91.9873 38.9105 92.2024 40.8206C92.4022 42.4929 91.1676 44.2032 91.1676 44.2032Z" fill="#B3ADEB"/>
<path id="Vector_154" d="M91.8989 39.6406C91.7445 39.2029 91.5649 38.7728 91.3752 38.3478C91.2689 37.9295 91.1694 37.5078 91.0766 37.0828C91.0766 37.0702 91.0564 37.0828 91.0589 37.0828C91.0949 37.394 91.1515 37.7025 91.2284 38.0062C90.9731 37.4546 90.6876 36.9175 90.3733 36.3972C90.3606 36.3744 90.3303 36.3972 90.3404 36.4174C90.8562 37.3772 91.2952 38.3763 91.6535 39.4053C91.8477 39.9125 91.9621 40.4468 91.9925 40.9891C91.9966 41.5177 91.9251 42.0442 91.78 42.5526C91.7041 42.8435 91.6079 43.1294 91.5042 43.4102C91.4005 43.6911 91.2917 44.0124 91.1652 44.2982C91.1652 44.321 91.1879 44.3387 91.1981 44.3185C91.317 44.0655 91.4511 43.8125 91.5776 43.5595C91.7041 43.3065 91.7875 43.0788 91.8812 42.8359C92.0812 42.3333 92.1941 41.8003 92.2151 41.2598C92.2077 40.7054 92.1006 40.157 91.8989 39.6406Z" fill="#434059"/>
<path id="Vector_155" d="M88.6605 37.6668C88.6347 37.4902 88.5521 37.3268 88.4252 37.2013C88.4727 37.1167 88.5008 37.0227 88.5077 36.9259C88.5145 36.8292 88.4999 36.7321 88.4649 36.6417C88.4298 36.5513 88.3752 36.4697 88.3049 36.4029C88.2346 36.336 88.1505 36.2856 88.0584 36.2551C87.9977 36.2348 88.0002 36.2551 88.0205 36.1817C88.0383 36.1312 88.0485 36.0783 88.0508 36.0248C88.0533 35.9216 88.0242 35.8201 87.9673 35.7339C87.9134 35.6539 87.8345 35.5941 87.7429 35.5639C87.6513 35.5337 87.5523 35.5347 87.4613 35.5669C87.4546 35.5669 87.4482 35.5696 87.4434 35.5743C87.4387 35.5791 87.436 35.5855 87.436 35.5922C87.436 35.5989 87.4387 35.6054 87.4434 35.6101C87.4482 35.6149 87.4546 35.6175 87.4613 35.6175C87.6865 35.6403 87.9091 35.787 87.8611 36.0451C87.8408 36.1589 87.7472 36.2981 87.8737 36.3917C87.9387 36.4225 88.0065 36.4471 88.0761 36.4651C88.153 36.5019 88.2185 36.5587 88.2659 36.6295C88.3187 36.7113 88.3468 36.8066 88.3468 36.904C88.3468 37.0014 88.3187 37.0967 88.2659 37.1785C88.2556 37.1924 88.25 37.2093 88.25 37.2266C88.25 37.2439 88.2556 37.2607 88.2659 37.2746C88.3378 37.3334 88.3973 37.406 88.4407 37.4881C88.4842 37.5703 88.5107 37.6602 88.5189 37.7528C88.5467 37.9274 88.5189 38.1095 88.5593 38.2816C88.5593 38.3145 88.6074 38.3043 88.6175 38.2816C88.6815 38.0832 88.6963 37.8722 88.6605 37.6668Z" fill="#434059"/>
<path id="Vector_156" d="M89.1514 37.7584C89.1576 37.5777 89.1043 37.3999 88.9996 37.2524C89.0605 37.1766 89.1039 37.0884 89.1267 36.9939C89.1496 36.8994 89.1513 36.801 89.1317 36.7058C89.1121 36.6106 89.0717 36.5208 89.0135 36.443C88.9552 36.3652 88.8805 36.3012 88.7947 36.2556C88.739 36.2278 88.739 36.2354 88.7668 36.1797C88.7936 36.1322 88.8132 36.0811 88.825 36.0279C88.8443 35.9263 88.8319 35.8212 88.7896 35.7268C88.7509 35.6363 88.6823 35.5618 88.5953 35.5158C88.5082 35.4697 88.4081 35.4549 88.3114 35.4738C88.3047 35.4738 88.2983 35.4765 88.2935 35.4813C88.2888 35.486 88.2861 35.4924 88.2861 35.4991C88.2861 35.5059 88.2888 35.5123 88.2935 35.517C88.2983 35.5218 88.3047 35.5244 88.3114 35.5244C88.529 35.5826 88.7263 35.7774 88.6353 36.0102C88.5948 36.1215 88.4809 36.2455 88.5897 36.3568C88.6489 36.3976 88.7116 36.4332 88.7769 36.4631C88.8342 36.5036 88.8819 36.5562 88.9167 36.6171C88.9515 36.678 88.9725 36.7458 88.9783 36.8158C88.9841 36.8857 88.9745 36.956 88.9502 37.0218C88.9259 37.0876 88.8875 37.1474 88.8377 37.1967C88.8274 37.2107 88.8218 37.2275 88.8218 37.2448C88.8218 37.2621 88.8274 37.279 88.8377 37.2929C88.9607 37.4318 89.0243 37.6135 89.0148 37.7989C89.0148 37.976 88.9616 38.1531 88.9667 38.3276C88.9667 38.358 89.0122 38.358 89.0249 38.3276C89.1098 38.15 89.1531 37.9553 89.1514 37.7584Z" fill="#434059"/>
<path id="Vector_157" d="M88.1114 37.8823C88.0783 37.7072 87.9896 37.5475 87.8584 37.4269C87.9024 37.3402 87.9268 37.245 87.9298 37.1478C87.9328 37.0507 87.9143 36.954 87.8756 36.8649C87.837 36.7757 87.7791 36.6962 87.7061 36.6319C87.6332 36.5677 87.547 36.5204 87.4536 36.4933C87.3929 36.4756 87.3954 36.4933 87.4131 36.4225C87.4291 36.3708 87.4376 36.3172 87.4384 36.2631C87.4362 36.1603 87.4026 36.0605 87.3423 35.9772C87.2852 35.8977 87.2028 35.8399 87.1086 35.8132C87.0144 35.7866 86.9139 35.7926 86.8236 35.8305C86.8169 35.8305 86.8105 35.8332 86.8057 35.8379C86.801 35.8426 86.7983 35.8491 86.7983 35.8558C86.7983 35.8625 86.801 35.8689 86.8057 35.8737C86.8105 35.8784 86.8169 35.8811 86.8236 35.8811C87.0488 35.8811 87.279 36.0329 87.2411 36.2909C87.2234 36.4073 87.1374 36.5439 87.2689 36.6401C87.3346 36.6665 87.4023 36.6876 87.4713 36.7033C87.5499 36.737 87.6181 36.7912 87.6686 36.8602C87.7238 36.9405 87.7545 37.0351 87.7572 37.1324C87.7599 37.2298 87.7344 37.3259 87.6838 37.4092C87.6767 37.4251 87.6745 37.4428 87.6777 37.46C87.6809 37.4772 87.6892 37.493 87.7015 37.5053C87.7774 37.5605 87.8413 37.6303 87.8896 37.7108C87.9378 37.7912 87.9694 37.8805 87.9824 37.9734C88.0178 38.1454 88.0051 38.3301 88.0456 38.4996C88.0456 38.5299 88.0937 38.5198 88.1038 38.4996C88.1552 38.2973 88.1578 38.0857 88.1114 37.8823Z" fill="#434059"/>
<path id="Vector_158" d="M98.1148 47.2049C97.3407 48.5028 95.2003 49.6109 89.427 51.1871C88.6275 51.4047 85.379 45.482 86.2241 45.2037C87.2816 44.8571 91.4687 43.7313 91.79 43.6858C94.4565 43.3215 98.6385 46.3245 98.1148 47.2049Z" fill="#D3766A"/>
<path id="Vector_159" d="M78.8622 48.8168C78.8814 49.0265 78.9645 49.2253 79.1002 49.3863C79.2359 49.5474 79.4178 49.6629 79.6212 49.7174C79.4492 50.0305 79.3919 50.3938 79.4593 50.7446C79.606 51.3568 80.6332 51.3948 80.6332 51.3948C80.5219 51.7567 80.5219 52.1436 80.6332 52.5054C80.833 53.0772 81.8627 53.2644 81.8627 53.2644C81.9451 53.6533 82.1641 53.9998 82.48 54.241C83.3478 54.8507 84.843 54.2182 85.7943 53.8235C86.7455 53.4289 89.0858 51.4226 89.5664 51.0937L87.0972 44.9561C87.0972 44.9561 82.3207 45.5 81.2783 46.1224C80.3776 46.6359 78.8192 48.0148 78.8622 48.8168Z" fill="#D3766A"/>
<path id="Vector_160" d="M79.6207 49.6037C80.4328 48.8219 81.4321 48.321 82.4037 47.7644C82.4239 47.7518 82.4441 47.7872 82.4214 47.7998C81.4524 48.3412 80.6023 49.0648 79.6561 49.6467C79.6283 49.6644 79.6005 49.6265 79.6207 49.6037Z" fill="#434059"/>
<path id="Vector_161" d="M80.6179 51.3092C80.8188 51.1486 81.0399 51.015 81.2756 50.912C81.5286 50.7905 81.7639 50.659 82.0093 50.5552C82.5153 50.3225 83.0036 50.1024 83.5096 49.8975C83.5324 49.8975 83.5501 49.9202 83.5273 49.9303C83.0365 50.1631 82.5482 50.4009 82.065 50.6539C81.8246 50.7804 81.5843 50.9069 81.3465 51.0385C81.1281 51.1745 80.8957 51.2864 80.6533 51.3724C80.6453 51.3741 80.6371 51.3732 80.6297 51.3699C80.6223 51.3665 80.6162 51.3609 80.6123 51.3538C80.6083 51.3468 80.6067 51.3386 80.6077 51.3306C80.6087 51.3226 80.6123 51.3151 80.6179 51.3092Z" fill="#434059"/>
<path id="Vector_162" d="M81.88 53.252C82.0647 53.1108 82.2716 53.0014 82.4923 52.9282L83.1728 52.6221C83.6257 52.4146 84.0786 52.2097 84.5213 51.9871C84.5441 51.9744 84.5643 52.0098 84.5415 52.02C84.0912 52.2477 83.6434 52.4829 83.1905 52.7081L82.5226 53.0345C82.3283 53.1553 82.1142 53.241 81.8901 53.2875C81.8775 53.2773 81.8724 53.2596 81.88 53.252Z" fill="#434059"/>
<path id="Vector_163" d="M86.8564 44.8902L92.6273 50.6712C92.6273 50.6712 97.5227 48.6472 98.1932 47.2684C98.6309 46.3551 94.4615 43.1066 91.5419 43.7265L86.8564 44.8902Z" fill="#B3ADEB"/>
<path id="Vector_164" d="M95.1196 44.4119C94.0455 43.7538 92.7669 43.5134 91.5271 43.7364C91.5119 43.7364 91.5144 43.7643 91.5271 43.7617C92.8123 43.6327 94.5984 44.1766 95.1069 44.4347C95.1221 44.4423 95.1297 44.4195 95.1196 44.4119Z" fill="#434059"/>
<path id="Vector_165" d="M93.7403 49.1692C93.1635 48.5493 92.5513 47.9624 91.939 47.3754C91.3268 46.7885 90.712 46.199 90.0846 45.6272C89.7278 45.3059 89.3762 44.9796 89.0093 44.6709L88.9941 44.6861C89.571 45.3034 90.1807 45.8954 90.7879 46.4849C91.3951 47.0744 92.0149 47.6613 92.6347 48.2407C92.9864 48.567 93.3431 48.8883 93.71 49.197C93.7277 49.2147 93.758 49.1869 93.7403 49.1692Z" fill="#434059"/>
<path id="Vector_166" d="M84.6074 45.2906C84.7286 45.1096 84.8752 44.9468 85.0426 44.8074C85.3892 44.4785 90.3808 43.4918 91.2536 43.5753C92.1265 43.6588 94.9651 46.1331 95.509 47.7902C96.0529 49.4473 96.2073 55.8152 96.0782 55.8658C95.9492 55.9164 88.0735 57.2624 88.0735 57.2624C88.0735 57.2624 88.119 51.7622 88.0735 50.2291C88.0279 48.6959 85.2905 45.1692 85.1412 45.2071C84.9656 45.2479 84.7872 45.2758 84.6074 45.2906Z" fill="#E8E6F9"/>
<path id="Vector_167" d="M96.1215 54.9038L88.0737 56.1359C88.0737 56.0271 88.0737 55.9107 88.0737 55.7868L96.1063 54.5547C96.119 54.6761 96.1215 54.795 96.1215 54.9038Z" fill="#B3ADEB"/>
<path id="Vector_168" d="M96.1084 54.0357L88.0859 55.2703C88.0859 55.1539 88.0859 55.0375 88.0859 54.9161L96.0958 53.6865C96.1008 53.808 96.1034 53.9243 96.1084 54.0357Z" fill="#B3ADEB"/>
<path id="Vector_169" d="M84.4153 36.144C82.8291 38.9421 78.5458 47.42 74.8901 47.42C72.3019 47.42 65.5798 37.0042 64.9802 35.6709C64.4919 34.5805 71.4139 32.4148 71.7554 33.1409C72.4638 34.6286 74.4777 38.469 75.3834 39.2432C75.9855 39.7492 80.4711 35.1953 83.1934 33.5103C85.526 32.0657 85.5943 34.0593 84.4153 36.144Z" fill="#D3766A"/>
<path id="Vector_170" d="M62.9789 33.3843C62.3135 33.106 57.1777 32.9517 57.1777 31.8385C57.1777 30.7253 63.7101 31.0264 63.7101 31.0264L62.9789 33.3843Z" fill="#D3766A"/>
<path id="Vector_171" d="M72.3018 35.312C72.4612 33.4449 71.1355 31.1856 70.3563 30.9681C69.8149 30.8163 64.001 31.0768 63.0928 31.0237C62.1845 30.9706 58.9462 31.0591 58.8728 31.8561C58.7691 32.9819 62.3768 33.0224 62.9789 33.3892C63.581 33.7561 65.5569 36.6453 65.5569 36.6453L72.3018 35.312Z" fill="#D3766A"/>
<path id="Vector_172" d="M58.845 31.8657C58.9017 31.6566 59.0343 31.4762 59.2169 31.3597C59.6115 31.0814 60.1352 31.0586 60.6033 31.0207C61.3116 30.9553 62.0242 30.9494 62.7335 31.003C62.7369 31.003 62.7401 31.0043 62.7425 31.0067C62.7448 31.0091 62.7462 31.0123 62.7462 31.0156C62.7462 31.019 62.7448 31.0222 62.7425 31.0246C62.7401 31.0269 62.7369 31.0283 62.7335 31.0283C62.2022 31.0283 61.6735 31.0409 61.1422 31.0865C60.6556 31.1062 60.1728 31.18 59.7026 31.3066C59.4906 31.3631 59.2986 31.4779 59.1486 31.638C59.0951 31.6943 59.057 31.7635 59.0379 31.8388C59.0188 31.9141 59.0195 31.9931 59.0398 32.0681C59.1941 32.5589 60.1605 32.7031 60.6058 32.8018C61.1902 32.9333 61.7949 33.0548 62.3768 33.1686C62.4021 33.1686 62.3768 33.2116 62.3768 33.2066C61.7696 33.0877 61.127 33.0396 60.5147 32.9308C60.0088 32.8397 59.5028 32.7385 59.0878 32.4096C59.0002 32.3511 58.9309 32.2689 58.8879 32.1727C58.845 32.0765 58.8301 31.97 58.845 31.8657Z" fill="#434059"/>
<path id="Vector_173" d="M72.2383 33.9504L66.0854 39.238C66.0854 39.238 71.6918 47.5262 75.0617 47.6628C78.4316 47.7994 82.9729 39.4556 84.3796 36.6372C85.7862 33.8189 85.852 31.4534 81.9862 34.1908C78.1205 36.9282 75.7524 39.0255 75.5197 38.985C75.2869 38.9446 72.2383 33.9504 72.2383 33.9504Z" fill="#B3ADEB"/>
<path id="Vector_174" d="M83.6229 38.1225C83.626 38.1171 83.6267 38.1108 83.6251 38.1048C83.6234 38.0989 83.6195 38.0939 83.6141 38.0909C83.6087 38.0879 83.6024 38.0871 83.5964 38.0888C83.5905 38.0904 83.5855 38.0944 83.5825 38.0997C82.8918 39.1724 82.2264 40.2628 81.5256 41.3254C80.8248 42.388 80.0709 43.4455 79.3094 44.4828C78.8869 45.0596 78.4644 45.6466 78.009 46.2006C77.9913 46.2234 78.0241 46.2563 78.0444 46.2335C78.8919 45.2722 79.7243 44.3133 80.4858 43.276C81.0854 42.4538 81.6622 41.6138 82.1935 40.7461C82.5802 40.3478 82.941 39.9253 83.2738 39.4811C83.2865 39.4634 83.2738 39.4381 83.2485 39.4558C82.9449 39.7847 82.654 40.1237 82.358 40.4678C82.4389 40.3311 82.5224 40.1971 82.611 40.0604C82.9626 39.428 83.3168 38.7879 83.6229 38.1225Z" fill="#434059"/>
<path id="Vector_175" d="M72.6407 35.5972C71.7047 36.3562 70.8217 37.1481 69.9312 37.9501C69.0406 38.7521 68.1779 39.5667 67.3455 40.4168C67.3253 40.4371 67.3455 40.4624 67.3759 40.4446C68.312 39.6983 69.2177 38.9115 70.1032 38.1095C70.9887 37.3075 71.8742 36.5131 72.7091 35.6605C72.747 35.6175 72.6812 35.5593 72.6407 35.5972Z" fill="#434059"/>
<path id="Vector_176" d="M66.7132 19.7627H66.0908V20.7772H66.7132V19.7627Z" fill="#C7C7C7"/>
<path id="Vector_177" d="M73.7765 30.0195H54.8828V31.0619H73.7765V30.0195Z" fill="#C7C7C7"/>
<path id="Vector_178" d="M72.975 30.0197H55.6221C55.6221 30.0197 59.164 21.1648 66.086 20.545C73.0079 19.9252 72.975 30.0197 72.975 30.0197Z" fill="#C7C7C7"/>
<path id="Vector_179" d="M72.975 30.0197H55.6221C55.6221 30.0197 55.7562 29.6883 56.0167 29.1469L72.7347 27.4619C72.8807 28.307 72.9611 29.1622 72.975 30.0197Z" fill="#A6A6A6"/>
<path id="Vector_180" d="M63.2171 25.295C64.5151 24.1097 65.0869 22.6228 64.4943 21.9738C63.9017 21.3248 62.369 21.7595 61.071 22.9447C59.773 24.13 59.2011 25.6169 59.7937 26.266C60.3864 26.915 61.919 26.4803 63.2171 25.295Z" fill="#B3ADEB"/>
<path id="Vector_181" d="M85.0375 32.8075C85.1235 33.0427 86.4618 34.457 87.5522 34.2698C87.909 34.2091 87.6585 32.2458 87.6585 32.2458L87.6737 32.0965L87.8735 30.0195L85.2904 28.8L84.9211 28.6406C84.9211 28.6406 84.9034 29.2124 84.8882 29.9258V30.027C84.8882 30.0675 84.8882 30.1055 84.8882 30.1434C84.8882 30.2497 84.8882 30.3585 84.8882 30.4673C84.8882 30.576 84.8882 30.6292 84.8882 30.7202V30.9732C84.896 31.5873 84.9458 32.2002 85.0375 32.8075Z" fill="#D3766A"/>
<path id="Vector_182" d="M84.8984 29.9258C85.1719 30.4707 85.561 30.9493 86.0386 31.3282C86.5163 31.7071 87.0709 31.9771 87.6637 32.1193L87.8635 30.0422L85.2906 28.8L84.9212 28.6406C84.9212 28.6406 84.9136 29.2124 84.8984 29.9258Z" fill="#434059"/>
<path id="Vector_183" d="M90.5249 26.9808C90.7957 30.6341 88.6376 31.2084 87.8483 31.2666C87.1323 31.3197 84.6909 31.4057 84.0533 27.798C83.4158 24.1903 85.0198 22.9127 86.6491 22.7077C88.2783 22.5028 90.2542 23.3276 90.5249 26.9808Z" fill="#D3766A"/>
<path id="Vector_184" d="M89.91 26.0125C89.8251 26.0066 89.7406 25.9956 89.657 25.9796C89.5659 25.9799 89.4771 25.9506 89.404 25.8961C89.3862 25.8734 89.3765 25.8453 89.3765 25.8164C89.3765 25.7875 89.3862 25.7594 89.404 25.7367C89.4423 25.694 89.4914 25.6623 89.5461 25.6449C89.6009 25.6276 89.6592 25.6252 89.7152 25.638C89.8331 25.6464 89.9438 25.6977 90.0264 25.7822C90.0446 25.8031 90.0562 25.829 90.0597 25.8565C90.0631 25.8839 90.0583 25.9119 90.0458 25.9366C90.0333 25.9613 90.0137 25.9818 89.9895 25.9953C89.9653 26.0088 89.9376 26.0148 89.91 26.0125Z" fill="#434059"/>
<path id="Vector_185" d="M87.5118 26.2047C87.5977 26.1869 87.6822 26.1632 87.7648 26.1339C87.8541 26.121 87.9368 26.0793 88.0001 26.015C88.0173 25.9924 88.0267 25.9649 88.0267 25.9365C88.0267 25.9082 88.0173 25.8806 88.0001 25.8581C87.9558 25.8212 87.9024 25.7968 87.8454 25.7875C87.7885 25.7781 87.7301 25.7842 87.6763 25.805C87.5618 25.8315 87.461 25.899 87.3929 25.9947C87.3805 26.0158 87.3738 26.0398 87.3735 26.0642C87.3733 26.0887 87.3795 26.1128 87.3916 26.1341C87.4037 26.1554 87.4211 26.1732 87.4422 26.1856C87.4633 26.1979 87.4873 26.2046 87.5118 26.2047Z" fill="#434059"/>
<path id="Vector_186" d="M88.0737 27.0889C88.0737 27.0889 88.0534 27.104 88.056 27.1142C88.0888 27.3672 88.0838 27.6505 87.8662 27.7542C87.8662 27.7542 87.8662 27.7694 87.8662 27.7669C88.1344 27.7036 88.1369 27.3115 88.0737 27.0889Z" fill="#434059"/>
<path id="Vector_187" d="M87.8201 26.8516C87.4178 26.8516 87.4659 27.6663 87.8378 27.6561C88.2097 27.646 88.1565 26.844 87.8201 26.8516Z" fill="#434059"/>
<path id="Vector_188" d="M87.6663 26.9049C87.598 26.9555 87.5348 27.039 87.4488 27.0517C87.3627 27.0643 87.2742 26.9884 87.1958 26.91H87.1831C87.1831 27.0643 87.259 27.2186 87.4361 27.2313C87.6132 27.2439 87.6891 27.1023 87.7169 26.9454C87.7195 26.9252 87.6916 26.8847 87.6663 26.9049Z" fill="#434059"/>
<path id="Vector_189" d="M89.4975 26.958C89.4975 26.958 89.5152 26.958 89.5178 26.9808C89.5178 27.2338 89.5684 27.5146 89.7986 27.5854C89.5203 27.5652 89.4596 27.1958 89.4975 26.958Z" fill="#434059"/>
<path id="Vector_190" d="M89.705 26.6878C90.1047 26.6372 90.1781 27.4468 89.8062 27.4848C89.4343 27.5227 89.371 26.7308 89.705 26.6878Z" fill="#434059"/>
<path id="Vector_191" d="M89.8772 26.7259C89.9455 26.7613 90.0138 26.8347 90.0897 26.8322C90.1656 26.8296 90.2364 26.736 90.2845 26.6475C90.3022 26.7993 90.2668 26.9637 90.1226 27.0067C89.9784 27.0497 89.8696 26.9232 89.8291 26.774C89.8443 26.7562 89.8443 26.7107 89.8772 26.7259Z" fill="#434059"/>
<path id="Vector_192" d="M88.1618 29.0821C88.2225 29.1403 88.2832 29.2212 88.3743 29.2263C88.4674 29.2243 88.559 29.2018 88.6425 29.1605C88.6075 29.2103 88.5595 29.2496 88.5038 29.2742C88.448 29.2987 88.3866 29.3075 88.3262 29.2997C88.2748 29.2884 88.2281 29.2615 88.1928 29.2225C88.1574 29.1834 88.1351 29.1344 88.1289 29.0821C88.134 29.0821 88.1542 29.0644 88.1618 29.0821Z" fill="#434059"/>
<path id="Vector_193" d="M89.1385 28.1025C89.1385 28.1025 89.2169 28.4694 89.2295 28.6465C89.2295 28.6616 89.1891 28.6718 89.1283 28.6794C88.9797 28.7172 88.8236 28.7136 88.6769 28.669C88.5301 28.6244 88.3984 28.5405 88.296 28.4264C88.2833 28.4112 88.296 28.3909 88.3213 28.4011C88.5504 28.5405 88.8182 28.6026 89.0853 28.5782C89.0853 28.5276 88.931 27.9533 88.9588 27.9482C89.0949 27.9513 89.2301 27.9717 89.3611 28.0089C89.2219 27.2499 88.9614 26.4909 88.8323 25.732C88.8323 25.7041 88.8677 25.6915 88.8779 25.7168C89.1845 26.5041 89.4109 27.3203 89.5534 28.1531C89.5913 28.2341 89.2118 28.1278 89.1385 28.1025Z" fill="#434059"/>
<path id="Vector_194" d="M89.1183 28.5619C89.0377 28.7171 88.9183 28.8487 88.7717 28.9439C88.6903 28.9931 88.5958 29.0161 88.501 29.0097C88.2935 28.9945 88.248 28.8124 88.2657 28.6505C88.2703 28.5646 88.2856 28.4796 88.3112 28.3975C88.5562 28.5361 88.8387 28.5936 89.1183 28.5619Z" fill="#434059"/>
<path id="Vector_195" d="M88.7717 28.9446C88.6903 28.9938 88.5958 29.0168 88.501 29.0104C88.2935 28.9952 88.248 28.8131 88.2657 28.6512C88.3707 28.6363 88.4777 28.6571 88.5695 28.7103C88.6612 28.7636 88.7325 28.8461 88.7717 28.9446Z" fill="#FF9ABB"/>
<path id="Vector_196" d="M84.6024 23.9954C85.1084 23.4641 85.918 20.0916 82.963 19.0392C80.051 18.0044 77.3971 21.9967 79.7955 24.1952C81.3995 25.6702 83.5196 25.1212 84.6024 23.9954Z" fill="#434059"/>
<path id="Vector_197" d="M84.3315 27.768C84.7186 27.7023 85.6167 26.5258 85.4498 24.6436C85.4498 24.6436 85.4826 26.3437 85.384 26.6043C85.2853 26.8649 85.89 25.9414 85.7711 24.4209C86.2841 24.7117 86.8362 24.9272 87.4105 25.061C88.1467 25.1875 88.5844 25.1318 88.6299 25.0762C88.6754 25.0205 87.5876 24.7979 87.2688 24.5019C87.2688 24.5019 89.2649 25.1824 90.1504 25.1571C90.2516 25.1571 90.1504 23.0547 88.7007 22.3135C87.2511 21.5722 85.2044 22.7562 84.6857 23.376C84.6857 23.376 84.0178 23.5456 83.3878 24.6258C82.7579 25.7061 83.9166 27.8364 84.3315 27.768Z" fill="#434059"/>
<path id="Vector_198" d="M84.6478 28.0359C84.6478 28.0359 83.861 26.8822 83.3399 27.1605C82.8187 27.4388 83.3981 29.106 84.0027 29.3388C84.0784 29.3743 84.1604 29.3941 84.2439 29.3971C84.3274 29.4001 84.4107 29.3862 84.4887 29.3562C84.5666 29.3261 84.6378 29.2807 84.6977 29.2225C84.7577 29.1643 84.8053 29.0946 84.8376 29.0175L84.6478 28.0359Z" fill="#D3766A"/>
<path id="Vector_199" d="M83.5195 27.6338C83.5195 27.6338 83.5195 27.649 83.5195 27.6515C83.7143 27.7513 83.8859 27.891 84.0232 28.0614C84.1605 28.2318 84.2604 28.4292 84.3165 28.6407C84.2921 28.5984 84.2588 28.5618 84.2191 28.5334C84.1793 28.505 84.1339 28.4854 84.086 28.4761C84.038 28.4667 83.9886 28.4678 83.9411 28.4792C83.8935 28.4905 83.849 28.512 83.8105 28.542C83.8105 28.542 83.8105 28.5673 83.8105 28.5648C83.8857 28.5422 83.966 28.5432 84.0406 28.5677C84.1152 28.5921 84.1806 28.6388 84.2279 28.7014C84.3046 28.8091 84.3698 28.9244 84.4227 29.0455C84.443 29.0835 84.5113 29.0632 84.4986 29.0202C84.5163 28.4636 84.1014 27.697 83.5195 27.6338Z" fill="#434059"/>
<path id="Vector_200" d="M87.6864 32.2643L87.1956 33.9796L84.9313 32.1074L84.4253 32.8361C84.4253 32.8361 86.7706 35.9403 86.768 35.791L87.3019 34.3009L88.3847 35.1864L88.0482 32.7146L87.6864 32.2643Z" fill="#B3ADEB"/>
<path id="Vector_201" d="M88.2808 33.9541C88.2125 33.5493 88.1543 33.137 88.0658 32.7347C88.0646 32.732 88.0626 32.7297 88.0602 32.7281C88.0577 32.7264 88.0548 32.7256 88.0518 32.7256C88.0489 32.7256 88.046 32.7264 88.0435 32.7281C88.0411 32.7297 88.0391 32.732 88.0379 32.7347C87.9975 33.137 88.2682 34.6904 88.3061 35.0648C88.2606 35.0243 87.3093 34.2881 87.2941 34.3058C87.1702 34.5461 86.7881 35.6315 86.7527 35.7302C86.3833 35.2368 84.9817 33.4532 84.5441 32.9902C84.5314 32.9902 84.5112 32.9902 84.5213 33.0054C84.8578 33.5342 86.7325 35.9427 86.7552 35.9326C86.9675 35.4181 87.1524 34.8929 87.3093 34.3589C87.6657 34.6993 88.0453 35.0146 88.4453 35.3026C88.4146 34.8505 88.3597 34.4004 88.2808 33.9541Z" fill="#434059"/>
<path id="Vector_202" d="M87.0003 34.9382C87.0243 35.0412 87.0784 35.1347 87.1556 35.207C87.2329 35.2792 87.3298 35.3268 87.4342 35.3439C87.5386 35.3609 87.6457 35.3466 87.7419 35.3026C87.8381 35.2587 87.9191 35.1872 87.9746 35.0972C88.0301 35.0072 88.0576 34.9027 88.0537 34.797C88.0497 34.6913 88.0144 34.5892 87.9523 34.5036C87.8902 34.418 87.8041 34.3528 87.7049 34.3162C87.6057 34.2796 87.4978 34.2733 87.395 34.2981C87.3269 34.3139 87.2625 34.343 87.2057 34.3838C87.1489 34.4246 87.1007 34.4762 87.064 34.5357C87.0273 34.5953 87.0028 34.6615 86.9919 34.7306C86.9809 34.7997 86.9838 34.8702 87.0003 34.9382Z" fill="#1A1452"/>
<path id="Vector_203" d="M87.2536 34.6236C87.2536 34.6236 85.3865 33.1942 85.3157 33.9304C85.2853 34.1276 85.3085 34.3294 85.3829 34.5145C85.4572 34.6997 85.5799 34.8614 85.7382 34.9829C85.7382 34.9829 85.4852 35.833 85.8445 35.919C86.2037 36.005 87.3624 35.2587 87.3624 35.0588C87.3459 34.9095 87.3093 34.7631 87.2536 34.6236Z" fill="#1A1452"/>
<path id="Vector_204" d="M87.5674 34.5401C87.5674 34.5401 88.1645 32.6477 88.4731 33.2473C88.5646 33.4039 88.6233 33.5776 88.6454 33.7577C88.6676 33.9378 88.6529 34.1205 88.6021 34.2947C88.6021 34.2947 89.0651 34.9272 88.8779 35.1346C88.6907 35.3421 87.7318 35.1346 87.6661 34.9474C87.6192 34.8154 87.5861 34.6789 87.5674 34.5401Z" fill="#1A1452"/>
</g>
</g>
</svg>
