
<svg width="195" height="244" viewBox="0 0 195 244" fill="none" xmlns="http://www.w3.org/2000/svg">
<g clip-path="url(#clip0_633_46819)">
<path d="M0 221.111L9 213.458C18 206.09 36 190.354 54 163.889C72 137.424 90 98.7986 108 99.0132C126 98.7986 144 137.424 162 163.889C180 190.354 198 206.09 216 182.987C234 160.312 252 98.7986 261 68.5424L270 38V244H261C252 244 234 244 216 244C198 244 180 244 162 244C144 244 126 244 108 244C90 244 72 244 54 244C36 244 18 244 9 244H0V221.111Z" fill="white" fill-opacity="0.1"/>
</g>
<g clip-path="url(#clip1_633_46819)">
<path d="M-74.7232 157.643L-66.7492 145.291C-58.6798 133.294 -42.875 108.054 -24.2774 93.2359C-5.77536 78.062 15.2808 72.42 43.9753 95.2848C72.6699 118.15 109.003 169.521 136.432 187.665C163.766 205.452 182.435 190.901 195.782 156.485C209.271 122.604 217.437 68.8565 221.688 42.6065L225.842 16.0002L286.949 244.055L276.421 246.876C265.893 249.697 244.837 255.339 223.781 260.981C202.725 266.623 181.669 272.265 160.612 277.906C139.556 283.548 118.5 289.19 97.444 294.832C76.3878 300.474 55.3316 306.116 34.2755 311.758C13.2193 317.4 -7.83683 323.042 -18.3649 325.863L-28.893 328.684L-74.7232 157.643Z" fill="white" fill-opacity="0.1"/>
</g>
<defs>
<clipPath id="clip0_633_46819">
<rect y="79" width="195" height="165" rx="8" fill="white"/>
</clipPath>
<clipPath id="clip1_633_46819">
<rect y="68" width="195" height="176" rx="8" fill="white"/>
</clipPath>
</defs>
</svg>
