<svg width="10" height="16" viewBox="0 0 10 16" fill="none" xmlns="http://www.w3.org/2000/svg">
<path fill-rule="evenodd" clip-rule="evenodd" d="M5 1.49021e-08C5.55228 3.90432e-08 6 0.447715 6 1L6 15C6 15.5523 5.55228 16 5 16C4.44771 16 4 15.5523 4 15L4 1C4 0.447715 4.44772 -9.23906e-09 5 1.49021e-08Z" fill="#6f6b94"/>
<path fill-rule="evenodd" clip-rule="evenodd" d="M5.70711 0.292893C6.09763 0.683418 6.09763 1.31658 5.70711 1.70711L1.70711 5.70711C1.31658 6.09763 0.683417 6.09763 0.292893 5.70711C-0.0976311 5.31658 -0.0976311 4.68342 0.292893 4.29289L4.29289 0.292893C4.68342 -0.0976311 5.31658 -0.0976311 5.70711 0.292893Z" fill="#6f6b94"/>
<path fill-rule="evenodd" clip-rule="evenodd" d="M9.70711 5.70711C9.31658 6.09763 8.68342 6.09763 8.29289 5.70711L4.29289 1.70711C3.90237 1.31658 3.90237 0.683417 4.29289 0.292893C4.68342 -0.0976311 5.31658 -0.0976311 5.70711 0.292893L9.70711 4.29289C10.0976 4.68342 10.0976 5.31658 9.70711 5.70711Z" fill="#6f6b94"/>
</svg>
