<svg width="175" height="175" viewBox="0 0 175 175" fill="none" xmlns="http://www.w3.org/2000/svg">
<g id="Group 37312">
<path id="Vector" d="M133.053 0.0318985C134.374 0.879398 134.766 2.08686 134.761 3.64972C134.722 21.9909 134.713 40.3291 134.734 58.6643C134.764 59.1206 134.746 59.5788 134.679 60.0312C134.402 61.3617 133.559 62.1773 132.196 62.1773C130.834 62.1773 129.977 61.3617 129.718 60.0267C129.644 59.4632 129.626 58.8941 129.663 58.3271V22.3585H5.20802V123.079H34.3328C34.7882 123.056 35.2444 123.056 35.6998 123.079C36.361 123.103 36.9872 123.383 37.4474 123.858C37.9076 124.334 38.1663 124.969 38.1693 125.63C38.1693 126.97 37.1214 127.995 35.6405 128.127C35.2988 128.159 34.9571 128.127 34.6153 128.127H3.58136C0.820154 128.127 0.0273376 127.335 0.0273376 124.582C0.0273376 84.2609 0.0182258 43.9394 0 3.61782C0 2.0504 0.382742 0.847499 1.70867 0L133.053 0.0318985ZM5.1989 5.20802V17.0548H129.563V5.20802H5.1989Z" fill="#434059"/>
<path id="Vector_2" d="M165.458 174.999L157.188 166.292C156.24 168.501 155.502 170.178 154.8 171.869C154.258 173.19 153.456 174.147 151.88 173.96C150.376 173.782 149.866 172.675 149.565 171.377C147.773 163.512 145.965 155.646 144.143 147.779C143.601 145.391 145.122 143.901 147.533 144.453C155.333 146.236 163.133 148.028 170.93 149.829C172.297 150.139 173.468 150.631 173.628 152.235C173.792 153.916 172.684 154.636 171.327 155.192C169.714 155.853 168.137 156.582 166.492 157.297L174.694 166.114V167.481L167.167 174.999H165.458ZM152.878 163.093C153.192 162.61 153.301 162.482 153.37 162.332C154.955 159.01 156.345 158.76 158.938 161.357C161.384 163.808 163.804 166.287 166.401 168.916C167.171 168.155 167.832 167.49 168.579 166.747C165.754 163.927 163.079 161.302 160.455 158.623C158.701 156.837 159.033 155.083 161.252 154.003L162.893 153.187L149.916 150.212C150.941 154.664 151.889 158.742 152.878 163.093Z" fill="#434059"/>
<path id="Vector_3" d="M25.5655 61.0199C25.5655 62.8425 25.5974 64.6651 25.5655 66.4877C25.5245 68.1963 24.44 69.3081 22.9729 69.2626C21.5057 69.217 20.5397 68.1462 20.5215 66.5287C20.485 62.7165 20.485 58.9027 20.5215 55.0875C20.5215 53.4927 21.6287 52.4037 23.023 52.3946C24.4172 52.3855 25.5108 53.4654 25.5563 55.0556C25.6065 57.0331 25.5609 59.0288 25.5655 61.0199Z" fill="#434059"/>
<path id="Vector_4" d="M25.5661 84.494C25.5661 86.3713 25.598 88.2531 25.5661 90.1303C25.5251 91.8299 24.4361 92.9553 22.9781 92.9143C21.52 92.8733 20.5358 91.7889 20.5176 90.1804C20.4811 86.3682 20.4811 82.553 20.5176 78.7346C20.5176 77.1308 21.6066 76.0509 23.01 76.0372C24.4134 76.0236 25.5069 77.0989 25.5524 78.6845C25.6071 80.621 25.5616 82.5575 25.5661 84.494Z" fill="#434059"/>
<path id="Vector_5" d="M25.5621 39.646C25.5621 40.8853 25.6077 41.9515 25.5621 43.0132C25.4755 44.6079 24.4275 45.6012 22.974 45.5648C22.6459 45.5662 22.3209 45.5013 22.0186 45.3739C21.7162 45.2466 21.4427 45.0593 21.2146 44.8235C20.9864 44.5877 20.8083 44.3082 20.691 44.0018C20.5736 43.6954 20.5195 43.3684 20.5318 43.0405C20.468 41.0539 20.4589 39.0673 20.5318 37.0807C20.5188 36.7499 20.5747 36.4201 20.6958 36.1121C20.8168 35.804 21.0006 35.5245 21.2352 35.291C21.4699 35.0576 21.7505 34.8755 22.0592 34.7561C22.3679 34.6367 22.698 34.5827 23.0287 34.5974C25.0062 34.52 26.9928 34.5245 28.9749 34.5974C29.3032 34.5869 29.6302 34.643 29.9362 34.7623C30.2423 34.8816 30.521 35.0617 30.7556 35.2916C30.9902 35.5215 31.1758 35.7965 31.3012 36.1001C31.4267 36.4036 31.4893 36.7295 31.4855 37.0579C31.5128 38.5069 30.5104 39.5548 28.9202 39.6369C27.8494 39.6733 26.7878 39.646 25.5621 39.646Z" fill="#434059"/>
<path id="Vector_6" d="M109.2 39.6453C107.951 39.6453 106.885 39.6908 105.823 39.6453C104.238 39.5587 103.244 38.5016 103.285 37.0435C103.285 36.7154 103.35 36.3905 103.478 36.0883C103.606 35.7862 103.794 35.513 104.03 35.2853C104.266 35.0576 104.546 34.88 104.853 34.7632C105.159 34.6465 105.486 34.5929 105.814 34.6058C107.796 34.542 109.783 34.5284 111.765 34.6058C113.282 34.6696 114.18 35.5946 114.239 37.1119C114.317 39.0939 114.312 41.0851 114.239 43.0672C114.249 43.3955 114.192 43.7224 114.072 44.0282C113.953 44.334 113.772 44.6124 113.542 44.8465C113.311 45.0807 113.036 45.2658 112.732 45.3907C112.428 45.5156 112.102 45.5777 111.774 45.5732C110.321 45.596 109.291 44.5936 109.209 42.9897C109.154 41.9508 109.2 40.9484 109.2 39.6453Z" fill="#434059"/>
<path id="Vector_7" d="M25.5668 105.66C26.879 105.66 27.9544 105.605 29.0206 105.66C29.6483 105.714 30.2331 106.001 30.6592 106.465C31.0853 106.929 31.3218 107.536 31.3218 108.166C31.3218 108.796 31.0853 109.403 30.6592 109.867C30.2331 110.331 29.6483 110.618 29.0206 110.672C27.0385 110.75 25.0519 110.745 23.0744 110.672C21.4979 110.617 20.5638 109.661 20.5137 108.07C20.4499 106.141 20.4499 104.211 20.5137 102.279C20.5638 100.68 21.6163 99.6773 23.0699 99.6956C24.5234 99.7138 25.4711 100.725 25.5577 102.361C25.5895 102.871 25.5577 103.382 25.5577 103.892L25.5668 105.66Z" fill="#434059"/>
<path id="Vector_8" d="M45.3231 39.6735C43.6828 39.6735 42.0425 39.6963 40.4022 39.6735C38.5249 39.6371 37.4678 38.6802 37.4906 37.0946C37.5134 35.5864 38.5568 34.625 40.3202 34.6068C43.7162 34.5764 47.1123 34.5764 50.5084 34.6068C52.331 34.6068 53.4928 35.673 53.4655 37.1812C53.4382 38.6893 52.2717 39.6508 50.4218 39.6735C48.7222 39.6735 47.0227 39.6735 45.3231 39.6735Z" fill="#434059"/>
<path id="Vector_9" d="M67.3353 39.6735C65.695 39.6735 64.0501 39.6735 62.4098 39.6735C60.5416 39.6462 59.4116 38.6984 59.3843 37.1766C59.3569 35.6547 60.4961 34.6204 62.3277 34.6067C65.6676 34.5794 69.0075 34.5839 72.3519 34.6067C74.2201 34.6067 75.3546 35.5818 75.3774 37.0991C75.4002 38.6164 74.2383 39.6598 72.2654 39.6781C70.6205 39.6735 68.9619 39.6735 67.3353 39.6735Z" fill="#434059"/>
<path id="Vector_10" d="M89.2147 34.569C90.9689 34.569 92.7232 34.5417 94.4774 34.569C96.2316 34.5963 97.2659 35.5897 97.2705 37.0933C97.2751 38.5969 96.2316 39.6084 94.4865 39.6267C91.0388 39.6631 87.5865 39.6631 84.1297 39.6267C82.4256 39.6267 81.2956 38.5513 81.291 37.1024C81.2865 35.6534 82.421 34.61 84.1206 34.569C85.8201 34.528 87.5151 34.569 89.2147 34.569Z" fill="#434059"/>
<path id="Vector_11" d="M114.263 53.1233C114.263 55.8298 113.424 57.1102 111.674 57.0646C109.925 57.019 109.196 55.7934 109.196 53.178C109.196 52.6676 109.168 52.1573 109.196 51.6515C109.296 50.0978 110.344 48.986 111.706 48.9632C113.069 48.9405 114.144 50.0294 114.249 51.5969C114.29 52.1026 114.263 52.613 114.263 53.1233Z" fill="#434059"/>
<path id="Vector_12" d="M103.135 13.6505C102.513 13.6962 101.888 13.6962 101.267 13.6505C99.8496 13.4318 98.9884 12.557 98.9884 11.1126C98.9705 10.8106 99.0124 10.5081 99.1115 10.2224C99.2106 9.93666 99.3651 9.67327 99.5661 9.44729C99.7671 9.22131 100.011 9.03716 100.283 8.90541C100.555 8.77365 100.851 8.69686 101.153 8.67942C102.506 8.53134 103.872 8.53134 105.226 8.67942C105.528 8.69573 105.824 8.77138 106.096 8.90205C106.369 9.03273 106.613 9.21585 106.815 9.44098C107.017 9.6661 107.173 9.92881 107.273 10.2141C107.373 10.4993 107.416 10.8015 107.4 11.1034C107.4 12.5478 106.57 13.4272 105.153 13.6459C104.482 13.6989 103.807 13.7005 103.135 13.6505Z" fill="#434059"/>
<path id="Vector_13" d="M116.751 13.674C116.24 13.674 115.73 13.7014 115.22 13.674C113.652 13.5601 112.586 12.4893 112.618 11.0905C112.635 10.4294 112.91 9.80106 113.384 9.34028C113.858 8.87949 114.494 8.62289 115.156 8.62548C116.288 8.55713 117.423 8.55713 118.555 8.62548C119.223 8.61642 119.868 8.8732 120.347 9.33933C120.826 9.80546 121.1 10.4428 121.109 11.111C121.118 11.7793 120.861 12.4238 120.395 12.9027C119.929 13.3817 119.292 13.6559 118.623 13.6649C118.004 13.7196 117.375 13.6649 116.751 13.6649V13.674Z" fill="#434059"/>
<path id="Union" fill-rule="evenodd" clip-rule="evenodd" d="M139.373 150.853C136.821 142.651 142.093 137.001 150.554 139.612C150.566 139.43 150.58 139.264 150.593 139.109C150.624 138.748 150.649 138.448 150.636 138.154C150.66 117.945 150.66 97.731 150.636 77.5125C150.632 71.457 146.631 67.5156 140.53 67.5156H53.5655C47.3915 67.5202 43.4502 71.4843 43.4502 77.6856V140.715C43.4548 147.026 47.3687 150.967 53.6521 150.967H137.55C137.951 150.967 138.347 150.934 138.758 150.9L138.759 150.9C138.96 150.883 139.163 150.867 139.373 150.853ZM103.967 105.502C102.852 107.098 101.737 108.693 100.622 110.289C101.736 108.692 102.851 107.097 103.967 105.502ZM137.032 133.682C137.349 134.419 137.428 135.193 137.017 136.041C136.393 137.331 135.194 137.549 133.855 137.549C109.301 137.531 84.7467 137.531 60.1905 137.549C59.3489 137.549 58.585 137.461 57.9839 137.083C58.5883 137.466 59.3556 137.569 60.1906 137.566C84.7468 137.548 109.301 137.548 133.855 137.566C135.194 137.566 136.374 137.38 137.017 136.058C137.441 135.185 137.357 134.415 137.032 133.682ZM57.6719 136.846C57.4338 136.629 57.2305 136.349 57.0694 135.987C56.8438 135.48 56.7722 135.01 56.8195 134.566C56.7667 135.021 56.8383 135.499 57.0694 136.004C57.2301 136.355 57.4336 136.63 57.6719 136.846ZM76.3245 111.448C71.7159 116.705 67.1116 121.965 62.5116 127.229C67.117 121.972 71.7213 116.712 76.3245 111.448ZM60.2093 97.7813C61.8105 99.1401 63.8786 99.9502 66.1732 99.9621C71.6956 99.9894 75.8648 95.9205 75.883 90.4984C75.8933 87.4271 74.5792 84.7579 72.4705 83.0181C74.572 84.7607 75.8793 87.431 75.869 90.4865C75.8508 95.8859 71.6816 99.9776 66.1592 99.9503C63.8713 99.9384 61.8085 99.133 60.2093 97.7813ZM92.2897 122.162C92.1301 122.394 91.9751 122.618 91.824 122.836C91.7289 122.973 91.6352 123.109 91.543 123.242C91.7853 122.897 92.034 122.54 92.2897 122.162ZM93.6498 129.122C94.1783 128.861 94.6784 128.431 95.0974 127.834C99.4108 121.692 103.712 115.541 108.001 109.381C108.803 108.229 109.616 107.089 110.583 105.735L110.585 105.732L110.585 105.732L110.727 105.532L110.717 105.518C110.311 106.092 109.931 106.627 109.567 107.139L109.567 107.139L109.564 107.143C109.012 107.921 108.497 108.647 107.983 109.377L95.0792 127.83C94.6624 128.424 94.1705 128.857 93.6498 129.122ZM65.6753 132.022C66.8497 130.679 68.0177 129.343 69.1818 128.011C68.0166 129.342 66.8475 130.678 65.6719 132.022H65.6753ZM92.3985 122C92.399 122 92.3995 121.999 92.4 121.998L83.4056 111.737C83.0271 112.172 82.6493 112.606 82.2718 113.039C82.6492 112.607 83.0271 112.174 83.4056 111.741L92.3985 122ZM68.3813 93.9048C69.5222 93.1676 70.3591 91.875 70.4152 90.521C70.5018 88.4341 68.4605 86.3108 66.3372 86.3108C66.2716 86.3104 66.206 86.312 66.1405 86.3155C66.2134 86.3107 66.2865 86.3083 66.3597 86.3083C68.483 86.3219 70.5152 88.4179 70.4377 90.5184C70.3874 91.8846 69.5352 93.1718 68.3813 93.9048Z" fill="#B3ADEB"/>
<g id="Group 37311">
<rect id="Rectangle 197" x="58.9375" y="88.4277" width="45.5645" height="5.01209" rx="2.50605" fill="white"/>
<rect id="Rectangle 200" x="58.9375" y="125.334" width="45.5645" height="5.01209" rx="2.50605" fill="white"/>
<rect id="Rectangle 198" x="58.9375" y="100.729" width="76.0927" height="5.01209" rx="2.50605" fill="white"/>
<rect id="Rectangle 199" x="58.9375" y="113.033" width="59.6895" height="5.01209" rx="2.50605" fill="white"/>
</g>
</g>
</svg>
