<svg width="18" height="18" fill="none" xmlns="http://www.w3.org/2000/svg"><path fill-rule="evenodd" clip-rule="evenodd" d="M8.41 7.232a.833.833 0 0 1 0 1.179.833.833 0 1 0 1.179 1.178.833.833 0 0 1 1.179 1.178A2.5 2.5 0 1 1 7.23 7.232a.833.833 0 0 1 1.179 0Z" fill="#16151E"/><path fill-rule="evenodd" clip-rule="evenodd" d="M8.998 4.833a6.713 6.713 0 0 0-1.35.133.833.833 0 1 1-.33-1.633A8.38 8.38 0 0 1 9 3.166h.001L9 3.999v-.833h.001c3.38 0 6.114 1.905 8.214 5.405a.833.833 0 0 1 0 .857c-.581.968-1.21 1.816-1.891 2.535a.833.833 0 0 1-1.211-1.144c.487-.516.957-1.122 1.406-1.82.09.14.178.282.266.43l.715-.43-.715-.428c-.088.146-.176.29-.266.428C13.675 6.132 11.5 4.833 9 4.833h-.002Zm-3.19-.167a.833.833 0 0 1-.27 1.147c-1.093.677-2.117 1.726-3.057 3.186C4.325 11.867 6.5 13.166 9 13.166h.005a6.431 6.431 0 0 0 3.454-.979.833.833 0 1 1 .884 1.413 8.098 8.098 0 0 1-4.346 1.233C5.62 14.832 2.885 12.927.785 9.428a.833.833 0 0 1 0-.857C1.893 6.724 3.18 5.314 4.661 4.396a.833.833 0 0 1 1.147.27Z" fill="#16151E"/><path fill-rule="evenodd" clip-rule="evenodd" d="M.91.91a.833.833 0 0 1 1.18 0l15 15a.833.833 0 1 1-1.18 1.179l-15-15A.833.833 0 0 1 .91.91Z" fill="#16151E"/></svg>