<svg width="18" height="18" viewBox="0 0 18 18" fill="none" xmlns="http://www.w3.org/2000/svg">
<g id="Itinerary Updated">
<path id="mail" d="M2.6 16C2.16 16 1.78333 15.8409 1.47 15.5227C1.15667 15.2044 1 14.8219 1 14.375V4.625C1 4.17813 1.15667 3.79557 1.47 3.47734C1.78333 3.15911 2.16 3 2.6 3H15.4C15.84 3 16.2167 3.15911 16.53 3.47734C16.8433 3.79557 17 4.17813 17 4.625V14.375C17 14.8219 16.8433 15.2044 16.53 15.5227C16.2167 15.8409 15.84 16 15.4 16H2.6ZM15.4 6.25L9.42 10.0484C9.35333 10.0891 9.28333 10.1195 9.21 10.1398C9.13667 10.1602 9.06667 10.1703 9 10.1703C8.93333 10.1703 8.86333 10.1602 8.79 10.1398C8.71667 10.1195 8.64667 10.0891 8.58 10.0484L2.6 6.25V14.375H15.4V6.25ZM9 8.6875L15.4 4.625H2.6L9 8.6875ZM2.6 6.45312V5.25469V5.275V5.26484V6.45312Z" fill="#3528A5"/>
</g>
</svg>
