
<svg width="20" height="20" viewBox="0 0 20 20" fill="none" xmlns="http://www.w3.org/2000/svg">
<path d="M12.5 17.5C10.8611 17.5 9.40278 17.0347 8.125 16.1042C6.84722 15.1736 5.94444 13.9722 5.41667 12.5H2.5V10.8333H5.04167C5 10.5 4.98278 10.1911 4.99 9.90667C4.99722 9.62222 5.01444 9.37556 5.04167 9.16667H2.5V7.5H5.41667C5.94444 6.02778 6.84722 4.82639 8.125 3.89583C9.40278 2.96528 10.8611 2.5 12.5 2.5C13.4583 2.5 14.3647 2.67028 15.2192 3.01083C16.0736 3.35139 16.8339 3.82 17.5 4.41667L16.3125 5.58333C15.7986 5.13889 15.2189 4.79167 14.5733 4.54167C13.9278 4.29167 13.2367 4.16667 12.5 4.16667C11.3194 4.16667 10.2639 4.47583 9.33333 5.09417C8.40278 5.7125 7.70139 6.51444 7.22917 7.5H12.5V9.16667H6.72917C6.67361 9.54167 6.65278 9.87167 6.66667 10.1567C6.68056 10.4417 6.70139 10.6672 6.72917 10.8333H12.5V12.5H7.22917C7.70139 13.4861 8.40278 14.2883 9.33333 14.9067C10.2639 15.525 11.3194 15.8339 12.5 15.8333C13.2361 15.8333 13.9272 15.7083 14.5733 15.4583C15.2194 15.2083 15.7992 14.8611 16.3125 14.4167L17.5 15.5833C16.8333 16.1806 16.0728 16.6494 15.2183 16.99C14.3639 17.3306 13.4578 17.5006 12.5 17.5Z" fill="#A9A6BF"/>
</svg>
