<svg width="20" height="20" fill="none" xmlns="http://www.w3.org/2000/svg"><mask id="a" style="mask-type:alpha" maskUnits="userSpaceOnUse" x="0" y="0" width="20" height="20"><path fill="#D9D9D9" d="M0 0h20v20H0z"/></mask><g mask="url(#a)"><path d="M4.167 15.834h1.166l7.188-7.188-1.167-1.167-7.187 7.188v1.167Zm11.916-8.396-3.541-3.5 1.166-1.167a1.6 1.6 0 0 1 1.177-.479 1.6 1.6 0 0 1 1.178.48l1.166 1.166c.32.32.486.705.5 1.156.014.451-.139.837-.458 1.156l-1.188 1.188ZM3.333 17.5a.806.806 0 0 1-.593-.24.806.806 0 0 1-.24-.593v-2.354c0-.111.02-.219.063-.323a.832.832 0 0 1 .187-.281l8.583-8.584 3.542 3.542-8.583 8.583a.83.83 0 0 1-.604.25H3.333Z" fill="#fff"/></g></svg>