<svg width="18" height="18" viewBox="0 0 18 18" fill="none" xmlns="http://www.w3.org/2000/svg">
<mask id="mask0_3626_184254" style="mask-type:alpha" maskUnits="userSpaceOnUse" x="0" y="0" width="18" height="18">
<rect width="18" height="18" fill="#D9D9D9"/>
</mask>
<g mask="url(#mask0_3626_184254)">
<path d="M3.35625 11.0246C3.23125 10.6996 3.14075 10.3714 3.08475 10.0399C3.02825 9.70886 3 9.37461 3 9.03711C3 7.36211 3.58125 5.93711 4.74375 4.76211C5.90625 3.58711 7.325 2.99961 9 2.99961H9.13125L8.45625 2.32461C8.31875 2.18711 8.25 2.01211 8.25 1.79961C8.25 1.58711 8.31875 1.41211 8.45625 1.27461C8.59375 1.13711 8.76875 1.06836 8.98125 1.06836C9.19375 1.06836 9.36875 1.13711 9.50625 1.27461L11.4562 3.22461C11.5312 3.29961 11.5845 3.38086 11.616 3.46836C11.647 3.55586 11.6625 3.64961 11.6625 3.74961C11.6625 3.84961 11.647 3.94336 11.616 4.03086C11.5845 4.11836 11.5312 4.19961 11.4562 4.27461L9.50625 6.22461C9.36875 6.36211 9.19375 6.43086 8.98125 6.43086C8.76875 6.43086 8.59375 6.36211 8.45625 6.22461C8.31875 6.08711 8.25 5.91211 8.25 5.69961C8.25 5.48711 8.31875 5.31211 8.45625 5.17461L9.13125 4.49961H9C7.75 4.49961 6.6875 4.94011 5.8125 5.82111C4.9375 6.70261 4.5 7.77461 4.5 9.03711C4.5 9.28711 4.522 9.53086 4.566 9.76836C4.6095 10.0059 4.675 10.2434 4.7625 10.4809C4.8125 10.6059 4.825 10.7401 4.8 10.8836C4.775 11.0276 4.7125 11.1496 4.6125 11.2496C4.3875 11.4746 4.147 11.5654 3.891 11.5219C3.6345 11.4779 3.45625 11.3121 3.35625 11.0246ZM8.49375 16.7246L6.54375 14.7746C6.46875 14.6996 6.41575 14.6184 6.38475 14.5309C6.35325 14.4434 6.3375 14.3496 6.3375 14.2496C6.3375 14.1496 6.35325 14.0559 6.38475 13.9684C6.41575 13.8809 6.46875 13.7996 6.54375 13.7246L8.49375 11.7746C8.63125 11.6371 8.80625 11.5684 9.01875 11.5684C9.23125 11.5684 9.40625 11.6371 9.54375 11.7746C9.68125 11.9121 9.75 12.0871 9.75 12.2996C9.75 12.5121 9.68125 12.6871 9.54375 12.8246L8.86875 13.4996H9C10.25 13.4996 11.3125 13.0591 12.1875 12.1781C13.0625 11.2966 13.5 10.2246 13.5 8.96211C13.5 8.71211 13.4783 8.46836 13.4347 8.23086C13.3907 7.99336 13.325 7.75586 13.2375 7.51836C13.1875 7.39336 13.175 7.25886 13.2 7.11486C13.225 6.97136 13.2875 6.84961 13.3875 6.74961C13.6125 6.52461 13.853 6.43386 14.109 6.47736C14.3655 6.52136 14.5437 6.68711 14.6437 6.97461C14.7688 7.29961 14.8595 7.62761 14.916 7.95861C14.972 8.29011 15 8.62461 15 8.96211C15 10.6371 14.4187 12.0621 13.2562 13.2371C12.0937 14.4121 10.675 14.9996 9 14.9996H8.86875L9.54375 15.6746C9.68125 15.8121 9.75 15.9871 9.75 16.1996C9.75 16.4121 9.68125 16.5871 9.54375 16.7246C9.40625 16.8621 9.23125 16.9309 9.01875 16.9309C8.80625 16.9309 8.63125 16.8621 8.49375 16.7246Z" fill="#D98D12"/>
</g>
</svg>
