<svg width="20" height="21" fill="none" xmlns="http://www.w3.org/2000/svg"><mask id="a" style="mask-type:alpha" maskUnits="userSpaceOnUse" x="0" y="0" width="20" height="21"><path fill="#D9D9D9" d="M0 .168h20v20H0z"/></mask><g mask="url(#a)"><path d="M10 14.335c.236 0 .434-.08.593-.24.16-.16.24-.357.24-.593v-3.334a.806.806 0 0 0-.24-.593.806.806 0 0 0-.593-.24.806.806 0 0 0-.594.24.806.806 0 0 0-.24.593v3.334c0 .236.08.434.24.593.16.16.358.24.594.24Zm0-6.667c.236 0 .434-.08.593-.24.16-.159.24-.357.24-.593a.806.806 0 0 0-.24-.594.806.806 0 0 0-.593-.24.806.806 0 0 0-.594.24.806.806 0 0 0-.24.594c0 .236.08.434.24.594.16.16.358.24.594.24Zm0 10.771H9.79a.414.414 0 0 1-.187-.041c-1.82-.57-3.32-1.698-4.5-3.386-1.18-1.688-1.771-3.552-1.771-5.594V5.481c0-.347.1-.66.302-.938a1.72 1.72 0 0 1 .781-.604l5-1.875c.195-.07.39-.104.584-.104.194 0 .389.035.583.104l5 1.875c.32.125.58.327.781.604.202.278.302.59.302.938v3.937c0 2.042-.59 3.907-1.77 5.594-1.181 1.688-2.681 2.816-4.5 3.386-.07.027-.202.041-.396.041Zm0-1.687c1.444-.459 2.639-1.375 3.583-2.75A7.915 7.915 0 0 0 15 9.418V5.481l-5-1.875L5 5.48v3.937c0 1.68.472 3.209 1.416 4.584.945 1.375 2.14 2.291 3.584 2.75Z" fill="#434059"/></g></svg>