
<svg xmlns="http://www.w3.org/2000/svg" xmlns:xlink="http://www.w3.org/1999/xlink" viewBox="0,0,256,256" width="24px" height="24px"><g fill="#6f6b94" fill-rule="nonzero" stroke="none" stroke-width="1" stroke-linecap="butt" stroke-linejoin="miter" stroke-miterlimit="10" stroke-dasharray="" stroke-dashoffset="0" font-family="none" font-weight="none" font-size="none" text-anchor="none" style="mix-blend-mode: normal"><g transform="scale(10.66667,10.66667)"><path d="M21,15v-5c0,-3.866 -3.134,-7 -7,-7h-3c-0.552,0 -1,0.448 -1,1v0c0,1.657 1.343,3 3,3h1c1.657,0 3,1.343 3,3v5h-1.294c-0.615,0 -0.924,0.742 -0.491,1.178l3.075,3.104c0.391,0.395 1.03,0.395 1.421,0l3.075,-3.104c0.432,-0.436 0.122,-1.178 -0.492,-1.178z" opacity="0.35"></path><path d="M3,9v5c0,3.866 3.134,7 7,7h3c0.552,0 1,-0.448 1,-1v0c0,-1.657 -1.343,-3 -3,-3h-1c-1.657,0 -3,-1.343 -3,-3v-5h1.294c0.615,0 0.924,-0.742 0.491,-1.178l-3.075,-3.105c-0.391,-0.395 -1.03,-0.395 -1.421,0l-3.074,3.105c-0.433,0.436 -0.123,1.178 0.491,1.178z"></path></g></g></svg>