<svg width="241" height="143" viewBox="0 0 241 143" fill="none" xmlns="http://www.w3.org/2000/svg">
<path d="M75.8134 135.323C74.6727 135.615 73.2618 136.042 72.4129 136.899C71.3806 137.943 71.0003 139.536 70.6634 141.122C70.6573 141.154 70.6402 141.183 70.6151 141.204C70.59 141.224 70.5584 141.236 70.5258 141.236C70.4933 141.236 70.4617 141.224 70.4366 141.204C70.4115 141.183 70.3944 141.154 70.3882 141.122C70.1147 139.85 69.7645 138.322 69.0274 137.378C68.0901 136.177 66.6458 135.685 65.2282 135.322C65.1971 135.314 65.1694 135.296 65.1497 135.271C65.1299 135.246 65.1191 135.214 65.1191 135.182C65.1191 135.15 65.1299 135.119 65.1497 135.094C65.1694 135.069 65.1971 135.051 65.2282 135.043C66.469 134.725 67.8883 134.304 68.7755 133.329C69.7011 132.311 70.0714 130.719 70.3882 129.243C70.3944 129.211 70.4115 129.182 70.4366 129.161C70.4617 129.14 70.4933 129.129 70.5258 129.129C70.5584 129.129 70.59 129.14 70.6151 129.161C70.6402 129.182 70.6573 129.211 70.6634 129.243C70.957 130.629 71.4606 132.203 72.2995 133.192C73.2101 134.264 74.4959 134.705 75.8134 135.043C75.8454 135.05 75.8739 135.068 75.8944 135.093C75.9149 135.119 75.9261 135.15 75.9261 135.183C75.9261 135.216 75.9149 135.248 75.8944 135.273C75.8739 135.299 75.8454 135.316 75.8134 135.323Z" fill="#45D94D"/>
<mask id="mask0_853_295942" style="mask-type:luminance" maskUnits="userSpaceOnUse" x="58" y="12" width="131" height="131">
<path d="M123.176 142.351C159.171 142.351 188.351 113.171 188.351 77.1756C188.351 41.1801 159.171 12 123.176 12C87.1801 12 58 41.1801 58 77.1756C58 113.171 87.1801 142.351 123.176 142.351Z" fill="white"/>
</mask>
<g mask="url(#mask0_853_295942)">
<rect x="25" y="-22" width="196.968" height="197.128" fill="#1FA825"/>
<path d="M123.176 144.595C86.0037 144.595 55.7607 114.352 55.7607 77.1794C55.7607 40.0069 86.0037 9.76562 123.176 9.76562C160.349 9.76562 190.592 40.0069 190.592 77.1794C190.592 114.352 160.349 144.595 123.176 144.595ZM123.176 14.2452C88.4736 14.2452 60.2503 42.4785 60.2503 77.1794C60.2503 111.88 88.482 140.115 123.184 140.115C157.887 140.115 186.12 111.882 186.12 77.1794C186.12 42.4768 157.879 14.2452 123.176 14.2452Z" fill="#1FA825"/>
<mask id="mask1_853_295942" style="mask-type:luminance" maskUnits="userSpaceOnUse" x="84" y="43" width="79" height="71">
<path d="M159.267 46.7468C155.382 42.7776 147.214 42.0471 143.423 46.7468L123.879 71.0076C120.777 74.8601 117.674 78.7115 114.571 82.5617C113.47 83.9293 112.159 85.979 110.735 87.8835L109.901 87.0196L103.584 80.5271C93.514 70.187 77.682 86.0307 87.7402 96.3707C92.9369 101.707 98.247 109.174 105.288 111.989C113.013 115.079 119.866 111.362 124.831 105.335C136.465 91.214 147.789 76.8314 159.267 62.5854C163.089 57.8407 163.816 51.3982 159.267 46.7468Z" fill="white"/>
</mask>
<g mask="url(#mask1_853_295942)">
<rect x="84.4922" y="43.4805" width="77.9305" height="69.6452" fill="#1FA825"/>
</g>
<path d="M158.694 44.5125C154.808 40.5432 146.641 39.8128 142.851 44.5125L123.306 68.7732C120.204 72.6246 117.102 76.476 113.999 80.3274C112.898 81.6932 111.585 83.7446 110.163 85.6475L109.329 84.7853L103 78.296C92.9282 67.9477 77.0963 83.7996 87.1561 94.1397C92.3512 99.4765 97.6629 106.941 104.704 109.758C112.429 112.848 119.28 109.131 124.247 103.104C135.883 88.9863 147.21 74.6037 158.689 60.3577C162.517 55.6147 163.244 49.1638 158.694 44.5125Z" fill="white"/>
<path d="M142.396 17.8197C127.653 11.5072 87.1104 9.98126 66.4971 50.1873C85.8863 26.9206 106.887 15.1663 142.396 17.8197Z" fill="#2BD533"/>
<path d="M109.652 138.335C143.899 135.862 167.585 115.82 183.972 91.6562C181.324 106.719 171.145 120.553 158.812 129.066C146.479 137.578 127.327 142.771 109.485 138.335" fill="#31C638"/>
</g>
<path d="M71.0538 12.7648C68.7023 13.3685 65.792 14.2458 64.0492 16.0136C61.9195 18.1666 61.1374 21.4488 60.4402 24.7209C60.4278 24.787 60.3926 24.8466 60.3409 24.8895C60.2891 24.9324 60.224 24.9559 60.1567 24.9559C60.0895 24.9559 60.0244 24.9324 59.9726 24.8895C59.9208 24.8466 59.8857 24.787 59.8732 24.7209C59.3128 22.0992 58.589 18.9505 57.0697 17.0042C55.1368 14.5276 52.1599 13.5136 49.2313 12.7648C49.1658 12.7506 49.1071 12.7144 49.065 12.6622C49.0229 12.61 49 12.545 49 12.478C49 12.4109 49.0229 12.3459 49.065 12.2937C49.1071 12.2415 49.1658 12.2053 49.2313 12.1911C51.788 11.5357 54.7165 10.6668 56.5444 8.65715C58.4506 6.56079 59.2128 3.27533 59.8665 0.235021C59.879 0.168948 59.9142 0.109305 59.9659 0.0663934C60.0177 0.0234822 60.0828 0 60.15 0C60.2173 0 60.2824 0.0234822 60.3342 0.0663934C60.386 0.109305 60.4211 0.168948 60.4336 0.235021C61.0423 3.09187 62.078 6.33731 63.8074 8.37363C65.6836 10.5851 68.3354 11.494 71.0521 12.1911C71.1177 12.2051 71.1765 12.2412 71.2187 12.2932C71.2609 12.3453 71.2841 12.4102 71.2843 12.4773C71.2845 12.5443 71.2617 12.6094 71.2198 12.6617C71.1778 12.714 71.1193 12.7504 71.0538 12.7648Z" fill="#31C638"/>
<path d="M240.054 89.7648C237.702 90.3685 234.792 91.2458 233.049 93.0136C230.92 95.1666 230.137 98.4488 229.44 101.721C229.428 101.787 229.393 101.847 229.341 101.89C229.289 101.932 229.224 101.956 229.157 101.956C229.089 101.956 229.024 101.932 228.973 101.89C228.921 101.847 228.886 101.787 228.873 101.721C228.313 99.0992 227.589 95.9505 226.07 94.0042C224.137 91.5276 221.16 90.5136 218.231 89.7648C218.166 89.7506 218.107 89.7144 218.065 89.6622C218.023 89.61 218 89.545 218 89.478C218 89.4109 218.023 89.3459 218.065 89.2937C218.107 89.2415 218.166 89.2053 218.231 89.1911C220.788 88.5357 223.717 87.6668 225.544 85.6572C227.451 83.5608 228.213 80.2753 228.867 77.235C228.879 77.1689 228.914 77.1093 228.966 77.0664C229.018 77.0235 229.083 77 229.15 77C229.217 77 229.282 77.0235 229.334 77.0664C229.386 77.1093 229.421 77.1689 229.434 77.235C230.042 80.0919 231.078 83.3373 232.807 85.3736C234.684 87.5851 237.335 88.494 240.052 89.1911C240.118 89.2051 240.176 89.2412 240.219 89.2932C240.261 89.3453 240.284 89.4102 240.284 89.4773C240.284 89.5443 240.262 89.6094 240.22 89.6617C240.178 89.714 240.119 89.7504 240.054 89.7648Z" fill="#1FA825"/>
<path d="M31.5121 71.3538C28.15 72.2144 23.9923 73.4685 21.494 75.9952C18.4503 79.0738 17.3246 83.7635 16.3373 88.4399C16.32 88.5348 16.27 88.6206 16.1959 88.6824C16.1219 88.7442 16.0285 88.778 15.932 88.778C15.8356 88.778 15.7422 88.7442 15.6681 88.6824C15.5941 88.6206 15.5441 88.5348 15.5268 88.4399C14.7246 84.6925 13.6922 80.1929 11.5242 77.4111C8.75738 73.8721 4.50796 72.4178 0.326912 71.3538C0.233975 71.3323 0.15106 71.28 0.0916904 71.2053C0.0323207 71.1307 0 71.0381 0 70.9427C0 70.8473 0.0323207 70.7547 0.0916904 70.6801C0.15106 70.6054 0.233975 70.5531 0.326912 70.5316C3.97928 69.596 8.16533 68.3552 10.7787 65.4817C13.5021 62.4797 14.5962 57.7917 15.5268 53.4455C15.5441 53.3506 15.5941 53.2648 15.6681 53.203C15.7422 53.1413 15.8356 53.1074 15.932 53.1074C16.0285 53.1074 16.1219 53.1413 16.1959 53.203C16.27 53.2648 16.32 53.3506 16.3373 53.4455C17.2045 57.5282 18.6872 62.1662 21.1571 65.0764C23.8405 68.2368 27.6296 69.536 31.5121 70.5316C31.6051 70.5531 31.688 70.6054 31.7474 70.6801C31.8067 70.7547 31.839 70.8473 31.839 70.9427C31.839 71.0381 31.8067 71.1307 31.7474 71.2053C31.688 71.28 31.6051 71.3323 31.5121 71.3538Z" fill="#1FA825"/>
<path d="M202.698 116.193C201.557 116.485 200.146 116.91 199.297 117.767C198.265 118.813 197.885 120.404 197.548 121.991C197.542 122.023 197.525 122.052 197.5 122.073C197.474 122.094 197.443 122.105 197.41 122.105C197.378 122.105 197.346 122.094 197.321 122.073C197.296 122.052 197.279 122.023 197.273 121.991C196.999 120.719 196.649 119.193 195.912 118.247C194.975 117.047 193.53 116.555 192.113 116.193C192.081 116.186 192.052 116.168 192.032 116.142C192.011 116.117 192 116.085 192 116.053C192 116.02 192.011 115.988 192.032 115.963C192.052 115.937 192.081 115.92 192.113 115.912C193.352 115.596 194.781 115.174 195.66 114.198C196.586 113.182 196.956 111.588 197.273 110.114C197.279 110.082 197.296 110.053 197.321 110.032C197.346 110.011 197.378 110 197.41 110C197.443 110 197.474 110.011 197.5 110.032C197.525 110.053 197.542 110.082 197.548 110.114C197.841 111.5 198.345 113.074 199.184 114.061C200.095 115.134 201.38 115.576 202.698 115.912C202.73 115.92 202.758 115.937 202.779 115.963C202.799 115.988 202.811 116.02 202.811 116.053C202.811 116.085 202.799 116.117 202.779 116.142C202.758 116.168 202.73 116.186 202.698 116.193Z" fill="#2BD433"/>
<path d="M208.694 53.191C207.552 53.4845 206.141 53.9098 205.294 54.767C204.26 55.8127 203.881 57.4037 203.543 58.9914C203.536 59.0234 203.519 59.0523 203.494 59.0731C203.469 59.0938 203.438 59.1052 203.405 59.1052C203.372 59.1052 203.341 59.0938 203.316 59.0731C203.291 59.0523 203.274 59.0234 203.267 58.9914C202.996 57.7189 202.645 56.193 201.908 55.2474C200.971 54.0466 199.527 53.5546 198.109 53.191C198.078 53.1833 198.05 53.1655 198.031 53.1402C198.011 53.115 198 53.0838 198 53.0518C198 53.0197 198.011 52.9885 198.031 52.9633C198.05 52.9381 198.078 52.9202 198.109 52.9125C199.348 52.5956 200.769 52.1737 201.656 51.1981C202.58 50.1824 202.952 48.588 203.267 47.1137C203.274 47.0817 203.291 47.0529 203.316 47.0321C203.341 47.0114 203.372 47 203.405 47C203.438 47 203.469 47.0114 203.494 47.0321C203.519 47.0529 203.536 47.0817 203.543 47.1137C203.838 48.4996 204.34 50.074 205.179 51.0613C206.089 52.1337 207.375 52.5756 208.694 52.9125C208.725 52.9202 208.753 52.9381 208.773 52.9633C208.793 52.9885 208.803 53.0197 208.803 53.0518C208.803 53.0838 208.793 53.115 208.773 53.1402C208.753 53.1655 208.725 53.1833 208.694 53.191Z" fill="#2BD433"/>
</svg>
