<svg width="24" height="24" fill="none" xmlns="http://www.w3.org/2000/svg"><mask id="a" style="mask-type:alpha" maskUnits="userSpaceOnUse" x="0" y="0" width="24" height="24"><path fill="#D9D9D9" d="M0 0h24v24H0z"/></mask><g mask="url(#a)"><path d="M7 21c-.55 0-1.02-.196-1.412-.587A1.926 1.926 0 0 1 5 19V8c0-.55.196-1.02.588-1.412A1.926 1.926 0 0 1 7 6h2V3c0-.283.096-.52.287-.712A.968.968 0 0 1 10 2h4c.283 0 .52.096.713.288.191.191.287.429.287.712v3h2c.55 0 1.02.196 1.413.588.391.391.587.862.587 1.412v11c0 .55-.196 1.02-.587 1.413A1.926 1.926 0 0 1 17 21c0 .283-.096.52-.288.712A.968.968 0 0 1 16 22a.968.968 0 0 1-.713-.288A.968.968 0 0 1 15 21H9c0 .283-.096.52-.287.712A.967.967 0 0 1 8 22a.967.967 0 0 1-.713-.288A.968.968 0 0 1 7 21Zm3.5-15h3V3.5h-3V6ZM7 19h10V8H7v11Zm1-1.75a.728.728 0 0 0 .75.75.728.728 0 0 0 .75-.75v-7.5A.728.728 0 0 0 8.75 9a.728.728 0 0 0-.75.75v7.5Zm3.25 0A.728.728 0 0 0 12 18a.728.728 0 0 0 .75-.75v-7.5A.728.728 0 0 0 12 9a.728.728 0 0 0-.75.75v7.5Zm3.25 0a.728.728 0 0 0 .75.75.728.728 0 0 0 .75-.75v-7.5a.728.728 0 0 0-.75-.75.728.728 0 0 0-.75.75v7.5Z" fill="#fff"/></g></svg>