<svg width="20" height="20" viewBox="0 0 20 20" fill="none" xmlns="http://www.w3.org/2000/svg">
<g id="Icons">
<mask id="mask0_2_48970" style="mask-type:alpha" maskUnits="userSpaceOnUse" x="0" y="0" width="20" height="20">
<rect id="Bounding box" width="20" height="20" fill="#D9D9D9"/>
</mask>
<g mask="url(#mask0_2_48970)">
<path id="more_horiz" d="M4.99967 11.6663C4.54134 11.6663 4.14898 11.5031 3.82259 11.1768C3.4962 10.8504 3.33301 10.458 3.33301 9.99967C3.33301 9.54134 3.4962 9.14898 3.82259 8.82259C4.14898 8.4962 4.54134 8.33301 4.99967 8.33301C5.45801 8.33301 5.85037 8.4962 6.17676 8.82259C6.50315 9.14898 6.66634 9.54134 6.66634 9.99967C6.66634 10.458 6.50315 10.8504 6.17676 11.1768C5.85037 11.5031 5.45801 11.6663 4.99967 11.6663ZM9.99967 11.6663C9.54134 11.6663 9.14898 11.5031 8.82259 11.1768C8.4962 10.8504 8.33301 10.458 8.33301 9.99967C8.33301 9.54134 8.4962 9.14898 8.82259 8.82259C9.14898 8.4962 9.54134 8.33301 9.99967 8.33301C10.458 8.33301 10.8504 8.4962 11.1768 8.82259C11.5031 9.14898 11.6663 9.54134 11.6663 9.99967C11.6663 10.458 11.5031 10.8504 11.1768 11.1768C10.8504 11.5031 10.458 11.6663 9.99967 11.6663ZM14.9997 11.6663C14.5413 11.6663 14.149 11.5031 13.8226 11.1768C13.4962 10.8504 13.333 10.458 13.333 9.99967C13.333 9.54134 13.4962 9.14898 13.8226 8.82259C14.149 8.4962 14.5413 8.33301 14.9997 8.33301C15.458 8.33301 15.8504 8.4962 16.1768 8.82259C16.5031 9.14898 16.6663 9.54134 16.6663 9.99967C16.6663 10.458 16.5031 10.8504 16.1768 11.1768C15.8504 11.5031 15.458 11.6663 14.9997 11.6663Z" fill="#6F6B94"/>
</g>
</g>
</svg>
