<svg width="24" height="24" fill="none" xmlns="http://www.w3.org/2000/svg"><mask id="a" style="mask-type:alpha" maskUnits="userSpaceOnUse" x="0" y="0" width="24" height="24"><path fill="#D9D9D9" d="M0 0h24v24H0z"/></mask><g mask="url(#a)"><path d="M1 18a.967.967 0 0 1-.713-.288A.968.968 0 0 1 0 17v-.575c0-.733.367-1.32 1.1-1.763C1.833 14.221 2.8 14 4 14c.217 0 .42.008.612.025s.38.042.563.075a3.544 3.544 0 0 0-.513 1.075A4.486 4.486 0 0 0 4.5 16.4V18H1Zm6 0a.967.967 0 0 1-.713-.288A.968.968 0 0 1 6 17v-.6c0-1.083.554-1.962 1.662-2.637 1.109-.675 2.555-1.013 4.338-1.013 1.8 0 3.25.338 4.35 1.012 1.1.675 1.65 1.555 1.65 2.638v.6c0 .283-.096.52-.288.712A.968.968 0 0 1 17 18H7Zm12.5 0v-1.6c0-.433-.058-.842-.175-1.225a4.213 4.213 0 0 0-.5-1.075c.183-.033.37-.058.563-.075.191-.017.395-.025.612-.025 1.2 0 2.167.22 2.9.662.733.442 1.1 1.03 1.1 1.763V17c0 .283-.096.52-.288.712A.968.968 0 0 1 23 18h-3.5ZM12 14.75c-.95 0-1.8.13-2.55.387-.75.259-1.192.546-1.325.863h7.75c-.15-.333-.596-.625-1.338-.875-.741-.25-1.587-.375-2.537-.375ZM4 13c-.55 0-1.02-.196-1.413-.588A1.926 1.926 0 0 1 2 11c0-.55.196-1.02.587-1.412A1.926 1.926 0 0 1 4 9c.55 0 1.02.196 1.412.588C5.804 9.979 6 10.45 6 11c0 .55-.196 1.02-.588 1.412A1.926 1.926 0 0 1 4 13Zm16 0c-.55 0-1.02-.196-1.413-.588A1.926 1.926 0 0 1 18 11c0-.55.196-1.02.587-1.412A1.926 1.926 0 0 1 20 9c.55 0 1.02.196 1.413.588.391.391.587.862.587 1.412 0 .55-.196 1.02-.587 1.412A1.926 1.926 0 0 1 20 13Zm-8-1a2.893 2.893 0 0 1-2.125-.875A2.893 2.893 0 0 1 9 9c0-.833.292-1.542.875-2.125A2.893 2.893 0 0 1 12 6c.833 0 1.542.292 2.125.875S15 8.167 15 9s-.292 1.542-.875 2.125A2.893 2.893 0 0 1 12 12Zm0-4a.968.968 0 0 0-.713.287A.967.967 0 0 0 11 9c0 .283.096.52.287.713.192.191.43.287.713.287s.52-.096.713-.287A.967.967 0 0 0 13 9a.967.967 0 0 0-.287-.713A.968.968 0 0 0 12 8Z" fill="#fff"/></g></svg>