<svg width="36" height="40" fill="none" xmlns="http://www.w3.org/2000/svg"><path d="M3.13 39.752c-1.225 0-2.053-.315-2.484-.944A3.615 3.615 0 0 1 0 36.721V3.231c0-.763.215-1.442.646-2.038C1.076.563 1.905.25 3.13.25h17.292c1.226 0 1.872.828 1.938 2.485.067 1.689-.58 2.534-1.938 2.534H5.863v29.465h15.454c1.225 0 1.855.812 1.888 2.435.066 1.723-.563 2.584-1.888 2.584H3.13ZM35.313 37.615c0 1.59-.994 2.385-2.981 2.385-1.955 0-2.932-.795-2.932-2.385V2.385C29.4.795 30.377 0 32.332 0c1.987 0 2.98.795 2.98 2.385v35.23Z" fill="#fff"/><path d="M17.342 22.112c.828-.795 1.242-1.773 1.242-2.932 0-1.16-.414-2.137-1.242-2.932-.795-.795-1.773-1.192-2.932-1.192-1.126 0-2.087.397-2.882 1.192-.795.795-1.193 1.772-1.193 2.932s.398 2.137 1.193 2.932c.795.795 1.756 1.192 2.882 1.192 1.16 0 2.137-.397 2.932-1.192Z" fill="#fff"/></svg>