<svg width="10" height="16" viewBox="0 0 10 16" fill="none" xmlns="http://www.w3.org/2000/svg">
<path fill-rule="evenodd" clip-rule="evenodd" d="M5 16C4.44772 16 4 15.5523 4 15L4 1C4 0.447715 4.44771 2.41411e-08 5 0C5.55228 -2.41411e-08 6 0.447715 6 1L6 15C6 15.5523 5.55228 16 5 16Z" fill="#6f6b94"/>
<path fill-rule="evenodd" clip-rule="evenodd" d="M4.29289 15.7071C3.90237 15.3166 3.90237 14.6834 4.29289 14.2929L8.29289 10.2929C8.68342 9.90237 9.31658 9.90237 9.70711 10.2929C10.0976 10.6834 10.0976 11.3166 9.70711 11.7071L5.70711 15.7071C5.31658 16.0976 4.68342 16.0976 4.29289 15.7071Z" fill="#6f6b94"/>
<path fill-rule="evenodd" clip-rule="evenodd" d="M0.292893 10.2929C0.683417 9.90237 1.31658 9.90237 1.70711 10.2929L5.70711 14.2929C6.09763 14.6834 6.09763 15.3166 5.70711 15.7071C5.31658 16.0976 4.68342 16.0976 4.29289 15.7071L0.292893 11.7071C-0.0976311 11.3166 -0.0976311 10.6834 0.292893 10.2929Z" fill="#6f6b94"/>
</svg>
