<svg width="24" height="24" fill="none" xmlns="http://www.w3.org/2000/svg"><mask id="a" style="mask-type:alpha" maskUnits="userSpaceOnUse" x="0" y="0" width="24" height="24"><path fill="#D9D9D9" d="M0 0h24v24H0z"/></mask><g mask="url(#a)"><path d="M8 17h5c.283 0 .52-.096.713-.288A.968.968 0 0 0 14 16a.968.968 0 0 0-.287-.713A.968.968 0 0 0 13 15H8a.967.967 0 0 0-.713.287A.968.968 0 0 0 7 16c0 .283.096.52.287.712.192.192.43.288.713.288Zm0-4h8c.283 0 .52-.096.712-.287A.968.968 0 0 0 17 12a.968.968 0 0 0-.288-.713A.968.968 0 0 0 16 11H8a.967.967 0 0 0-.713.287A.968.968 0 0 0 7 12c0 .283.096.52.287.713.192.191.43.287.713.287Zm0-4h8c.283 0 .52-.096.712-.287A.967.967 0 0 0 17 8a.967.967 0 0 0-.288-.713A.968.968 0 0 0 16 7H8a.968.968 0 0 0-.713.287A.968.968 0 0 0 7 8c0 .283.096.52.287.713.192.191.43.287.713.287ZM5 21c-.55 0-1.02-.196-1.413-.587A1.926 1.926 0 0 1 3 19V5c0-.55.196-1.02.587-1.413A1.926 1.926 0 0 1 5 3h14c.55 0 1.02.196 1.413.587C20.803 3.98 21 4.45 21 5v14c0 .55-.196 1.02-.587 1.413A1.926 1.926 0 0 1 19 21H5Zm0-2h14V5H5v14Z" fill="#fff"/></g></svg>