<svg width="20" height="21" fill="none" xmlns="http://www.w3.org/2000/svg"><mask id="a" style="mask-type:alpha" maskUnits="userSpaceOnUse" x="0" y="0" width="20" height="21"><path fill="#D9D9D9" d="M0 .168h20v20H0z"/></mask><g mask="url(#a)"><path d="M4.875 14.418a8.695 8.695 0 0 1 2.375-1.281 8.114 8.114 0 0 1 2.75-.469c.959 0 1.875.157 2.75.469.875.313 1.667.74 2.375 1.281a6.44 6.44 0 0 0 1.136-1.937 6.53 6.53 0 0 0 .406-2.313c0-1.847-.65-3.42-1.948-4.718-1.298-1.3-2.871-1.948-4.719-1.948-1.847 0-3.42.649-4.718 1.948-1.299 1.298-1.948 2.871-1.948 4.718 0 .82.135 1.59.406 2.313a6.44 6.44 0 0 0 1.135 1.937ZM10 11.002c-.82 0-1.51-.282-2.073-.844-.562-.563-.843-1.254-.843-2.073 0-.82.28-1.51.843-2.073.563-.562 1.254-.844 2.073-.844.82 0 1.51.282 2.073.844.563.563.844 1.254.844 2.073 0 .82-.281 1.51-.844 2.073-.562.562-1.253.844-2.073.844Zm0 7.5a8.115 8.115 0 0 1-3.25-.657 8.416 8.416 0 0 1-2.646-1.78 8.415 8.415 0 0 1-1.78-2.647 8.115 8.115 0 0 1-.657-3.25c0-1.152.219-2.236.656-3.25a8.416 8.416 0 0 1 1.781-2.646 8.415 8.415 0 0 1 2.646-1.78A8.115 8.115 0 0 1 10 1.834c1.153 0 2.236.219 3.25.656a8.416 8.416 0 0 1 2.646 1.781 8.415 8.415 0 0 1 1.781 2.646 8.115 8.115 0 0 1 .657 3.25 8.115 8.115 0 0 1-.657 3.25 8.415 8.415 0 0 1-1.78 2.646 8.416 8.416 0 0 1-2.647 1.781 8.115 8.115 0 0 1-3.25.657Zm0-1.667a6.61 6.61 0 0 0 2.084-.323 6.275 6.275 0 0 0 1.791-.927 6.275 6.275 0 0 0-1.791-.927A6.61 6.61 0 0 0 10 14.335a6.61 6.61 0 0 0-2.083.323 6.275 6.275 0 0 0-1.792.927 6.275 6.275 0 0 0 1.792.927 6.61 6.61 0 0 0 2.083.323Zm0-7.5c.361 0 .66-.118.896-.354s.354-.535.354-.896-.118-.66-.354-.896A1.214 1.214 0 0 0 10 6.835c-.36 0-.66.118-.896.354a1.214 1.214 0 0 0-.354.896c0 .361.118.66.354.896.237.236.535.354.896.354Z" fill="#fff"/></g></svg>