<svg width="24" height="24" fill="none" xmlns="http://www.w3.org/2000/svg"><mask id="a" style="mask-type:alpha" maskUnits="userSpaceOnUse" x="0" y="0" width="24" height="24"><path fill="#D9D9D9" d="M0 0h24v24H0z"/></mask><g mask="url(#a)"><path d="M12 21a.968.968 0 0 1-.713-.288A.968.968 0 0 1 11 20c0-.283.096-.52.287-.712A.968.968 0 0 1 12 19h7v-7.1c0-.967-.183-1.875-.55-2.725a7.078 7.078 0 0 0-1.5-2.225 7.077 7.077 0 0 0-2.225-1.5A6.805 6.805 0 0 0 12 4.9c-.967 0-1.875.183-2.725.55a7.077 7.077 0 0 0-2.225 1.5 7.077 7.077 0 0 0-1.5 2.225A6.805 6.805 0 0 0 5 11.9V17c0 .283-.096.52-.287.712A.967.967 0 0 1 4 18c-.55 0-1.02-.196-1.413-.587A1.926 1.926 0 0 1 2 16v-2c0-.383.092-.72.275-1.012.183-.292.425-.53.725-.713l.075-1.325c.15-1.217.496-2.317 1.037-3.3a8.784 8.784 0 0 1 2.026-2.5 9.1 9.1 0 0 1 2.725-1.588A8.93 8.93 0 0 1 12 3c1.1 0 2.154.188 3.162.563a8.803 8.803 0 0 1 2.713 1.6c.8.691 1.47 1.524 2.012 2.5.542.974.888 2.062 1.038 3.262l.075 1.3c.3.15.542.37.725.662.183.292.275.613.275.963v2.3c0 .367-.092.692-.275.975-.183.283-.425.5-.725.65V19c0 .55-.196 1.02-.587 1.413A1.926 1.926 0 0 1 19 21h-7Zm-3-7a.967.967 0 0 1-.713-.287A.968.968 0 0 1 8 13c0-.283.096-.52.287-.713A.967.967 0 0 1 9 12c.283 0 .52.096.713.287.191.192.287.43.287.713s-.096.52-.287.713A.967.967 0 0 1 9 14Zm6 0a.968.968 0 0 1-.713-.287A.968.968 0 0 1 14 13c0-.283.096-.52.287-.713A.968.968 0 0 1 15 12c.283 0 .52.096.713.287.191.192.287.43.287.713s-.096.52-.287.713A.968.968 0 0 1 15 14Zm-8.975-1.55c-.067-.983.07-1.875.412-2.675.342-.8.8-1.48 1.375-2.038A6.05 6.05 0 0 1 9.8 6.45c.75-.3 1.5-.45 2.25-.45 1.517 0 2.83.48 3.938 1.438S17.767 9.591 18 11.024c-1.567-.017-2.983-.438-4.25-1.263s-2.225-1.895-2.875-3.212a7.985 7.985 0 0 1-1.688 3.587 7.78 7.78 0 0 1-3.162 2.313Z" fill="#fff"/></g></svg>