<svg width="24" height="24" fill="none" xmlns="http://www.w3.org/2000/svg"><mask id="a" style="mask-type:alpha" maskUnits="userSpaceOnUse" x="0" y="0" width="24" height="24"><path fill="#D9D9D9" d="M0 0h24v24H0z"/></mask><g mask="url(#a)"><path d="M3 19a.967.967 0 0 1-.712-.288A.968.968 0 0 1 2 18c0-.283.096-.52.288-.712A.967.967 0 0 1 3 17h18c.283 0 .52.096.712.288.192.191.288.429.288.712s-.096.52-.288.712A.968.968 0 0 1 21 19H3Zm0-3v-1c0-2.133.654-4.017 1.963-5.65C6.27 7.717 7.95 6.683 10 6.25V6c0-.55.196-1.02.588-1.412A1.926 1.926 0 0 1 12 4c.55 0 1.02.196 1.412.588.392.391.588.862.588 1.412v.25c2.067.433 3.75 1.467 5.05 3.1C20.35 10.983 21 12.867 21 15v1H3Zm2.05-2h13.9c-.233-1.733-1.008-3.167-2.325-4.3C15.308 8.567 13.767 8 12 8s-3.304.567-4.612 1.7C6.079 10.833 5.3 12.267 5.05 14Z" fill="#fff"/></g></svg>