<svg width="24" height="24" fill="none" xmlns="http://www.w3.org/2000/svg"><mask id="a" style="mask-type:alpha" maskUnits="userSpaceOnUse" x="0" y="0" width="24" height="24"><path fill="#D9D9D9" d="M0 0h24v24H0z"/></mask><g mask="url(#a)"><path d="M12 22a9.738 9.738 0 0 1-3.9-.788 10.099 10.099 0 0 1-3.175-2.137c-.9-.9-1.612-1.958-2.137-3.175A9.738 9.738 0 0 1 2 12c0-1.383.263-2.683.788-3.9a10.099 10.099 0 0 1 2.137-3.175c.9-.9 1.958-1.612 3.175-2.137A9.738 9.738 0 0 1 12 2c1.383 0 2.683.263 3.9.788a10.098 10.098 0 0 1 3.175 2.137c.9.9 1.613 1.958 2.137 3.175A9.738 9.738 0 0 1 22 12a9.738 9.738 0 0 1-.788 3.9 10.098 10.098 0 0 1-2.137 3.175c-.9.9-1.958 1.613-3.175 2.137A9.738 9.738 0 0 1 12 22Zm0-2-.7-.7c-.1-.1-.175-.208-.225-.325A.942.942 0 0 1 11 18.6V13c-.55 0-1.02-.196-1.412-.588A1.926 1.926 0 0 1 9 11v-1L5.875 6.875A8.294 8.294 0 0 0 4.5 9.225 7.663 7.663 0 0 0 4 12c0 2.233.775 4.125 2.325 5.675C7.875 19.225 9.767 20 12 20Zm1-.05c1.983-.25 3.646-1.125 4.988-2.625C19.329 15.825 20 14.05 20 12c0-2.217-.78-4.104-2.337-5.662C16.104 4.779 14.217 4 12 4c-.733 0-1.438.096-2.113.287A8.428 8.428 0 0 0 8 5.075V7h3.55c.3 0 .587.067.862.2s.505.317.688.55l1.4 1.75H16c.283 0 .52.096.712.287.192.192.288.43.288.713v1.05c0 .15-.02.292-.063.425a1.733 1.733 0 0 1-.187.4L13 18v1.95Z" fill="#fff"/></g></svg>