
<svg width="155" height="52" viewBox="0 0 155 52" fill="none" xmlns="http://www.w3.org/2000/svg">
<path d="M4.06957 51.6773C2.47619 51.6773 1.39959 51.2682 0.839752 50.45C0.279917 49.6317 0 48.7274 0 47.7369V4.19902C0 3.20854 0.279917 2.32573 0.839752 1.55057C1.39959 0.732352 2.47619 0.323242 4.06957 0.323242H26.5491C28.1424 0.323242 28.9822 1.39985 29.0683 3.55306C29.1544 5.74933 28.3147 6.84747 26.5491 6.84747H7.62236V45.1531H27.7118C29.3052 45.1531 30.1234 46.2081 30.1665 48.3183C30.2526 50.5576 29.4344 51.6773 27.7118 51.6773H4.06957Z" fill="#1A174F"/>
<path d="M45.9067 48.8994C45.9067 50.9665 44.6148 52 42.0309 52C39.4901 52 38.2197 50.9665 38.2197 48.8994V3.10062C38.2197 1.03354 39.4901 0 42.0309 0C44.6148 0 45.9067 1.03354 45.9067 3.10062V48.8994Z" fill="#434EE2"/>
<path d="M22.5441 28.7449C23.6207 27.7114 24.159 26.441 24.159 24.9338C24.159 23.4265 23.6207 22.1561 22.5441 21.1226C21.5106 20.089 20.2402 19.5723 18.7329 19.5723C17.2687 19.5723 16.0199 20.089 14.9863 21.1226C13.9528 22.1561 13.436 23.4265 13.436 24.9338C13.436 26.441 13.9528 27.7114 14.9863 28.7449C16.0199 29.7785 17.2687 30.2952 18.7329 30.2952C20.2402 30.2952 21.5106 29.7785 22.5441 28.7449Z" fill="#F57073"/>
<path d="M66.6906 10.8644V12.2325H61.6227V15.7613H66.1931V17.0982H61.6227V20.6271H66.6906V21.9951H60.1925V10.8644H66.6906ZM69.6208 21.9951H67.9419L71.6729 16.2432L68.1595 10.8644H69.8696L72.5745 15.124H72.6367L75.3416 10.8644H77.0516L73.5383 16.2432L77.2693 21.9951H75.5903L72.6367 17.4402H72.5745L69.6208 21.9951ZM83.5214 22.2438C81.8736 22.2438 80.4952 21.6894 79.3863 20.5805C78.2877 19.4715 77.7384 18.088 77.7384 16.4298C77.7384 14.7716 78.2877 13.3932 79.3863 12.2946C80.4848 11.1754 81.8632 10.6157 83.5214 10.6157C85.2003 10.6157 86.5632 11.222 87.6099 12.4346L86.5839 13.4295C85.7859 12.4656 84.7651 11.9837 83.5214 11.9837C82.2881 11.9837 81.2569 12.3983 80.4278 13.2274C79.6091 14.0461 79.1997 15.1136 79.1997 16.4298C79.1997 17.746 79.6091 18.8134 80.4278 19.6322C81.2569 20.4613 82.2881 20.8758 83.5214 20.8758C84.8169 20.8758 85.9413 20.3317 86.8948 19.2435L87.9364 20.254C87.4078 20.8862 86.7601 21.3785 85.9932 21.7308C85.2262 22.0728 84.4023 22.2438 83.5214 22.2438ZM96.0514 21.9951H89.8021V10.8644H91.2323V20.6271H96.0514V21.9951ZM101.458 22.2438C100.225 22.2438 99.2297 21.8397 98.4731 21.0313C97.7166 20.2333 97.3383 19.1762 97.3383 17.86V10.8644H98.7685V17.9222C98.7685 18.8342 99.0069 19.5545 99.4836 20.083C99.9603 20.6116 100.618 20.8758 101.458 20.8758C102.297 20.8758 102.955 20.6116 103.432 20.083C103.909 19.5545 104.147 18.8342 104.147 17.9222V10.8644H105.577V17.86C105.577 19.2073 105.204 20.2747 104.458 21.0624C103.712 21.85 102.712 22.2438 101.458 22.2438ZM114.627 19.0259C114.627 20.0001 114.269 20.7826 113.554 21.3733C112.829 21.9537 111.948 22.2438 110.911 22.2438C109.989 22.2438 109.175 21.9744 108.471 21.4355C107.766 20.8966 107.279 20.1607 107.009 19.228L108.377 18.6684C108.471 19 108.6 19.3005 108.766 19.57C108.932 19.8395 109.123 20.0726 109.341 20.2696C109.569 20.4561 109.818 20.6064 110.087 20.7204C110.357 20.824 110.642 20.8758 110.942 20.8758C111.595 20.8758 112.129 20.71 112.544 20.3784C112.958 20.0364 113.165 19.5855 113.165 19.0259C113.165 18.5595 112.994 18.1605 112.652 17.8289C112.331 17.5076 111.73 17.1967 110.849 16.8962C109.958 16.5749 109.403 16.3572 109.186 16.2432C108.004 15.6421 107.413 14.756 107.413 13.5849C107.413 12.7662 107.74 12.0666 108.393 11.4863C109.056 10.9059 109.87 10.6157 110.833 10.6157C111.683 10.6157 112.419 10.8334 113.041 11.2686C113.663 11.6935 114.077 12.2273 114.285 12.8698L112.948 13.4295C112.823 13.0149 112.575 12.6729 112.202 12.4035C111.839 12.1236 111.393 11.9837 110.865 11.9837C110.305 11.9837 109.833 12.1392 109.45 12.4501C109.066 12.7403 108.875 13.1186 108.875 13.5849C108.875 13.9684 109.025 14.3 109.326 14.5799C109.657 14.8597 110.377 15.1913 111.486 15.5748C112.616 15.9582 113.419 16.4298 113.896 16.9894C114.383 17.5387 114.627 18.2175 114.627 19.0259ZM117.973 21.9951H116.542V10.8644H117.973V21.9951ZM124.66 21.9951H123.168L119.25 10.8644H120.836L123.883 19.8965H123.945L127.116 10.8644H128.702L124.66 21.9951ZM136.698 10.8644V12.2325H131.63V15.7613H136.2V17.0982H131.63V20.6271H136.698V21.9951H130.199V10.8644H136.698ZM145.069 21.9951H138.819V10.8644H140.25V20.6271H145.069V21.9951ZM149.603 16.8184V21.9951H148.173V16.8184L144.427 10.8644H146.106L148.857 15.3882H148.919L151.609 10.8644H153.288L149.603 16.8184Z" fill="#1A174F"/>
<path d="M60.1925 29.8644H62.2912V40.9951H60.1925V29.8644ZM67.0916 40.9951V31.8543H63.9825V29.8644H72.2994V31.8543H69.1903V40.9951H67.0916ZM76.2181 29.8644H78.6122L82.7939 40.9951H80.4776L79.5604 38.3368H75.2698L74.3526 40.9951H72.0364L76.2181 29.8644ZM78.8764 36.4092L77.8815 33.6265L77.4773 32.274H77.353L76.9488 33.6265L75.9538 36.4092H78.8764ZM84.2913 29.8644H86.3899V39.0053H91.1003V40.9951H84.2913V29.8644ZM94.2068 35.8184L90.4603 29.8644H92.9632L95.1862 33.5488H95.3106L97.4559 29.8644H99.9898L96.3055 35.8184V40.9951H94.2068V35.8184Z" fill="#494EED"/>
</svg>
