<svg width="16" height="16" viewBox="0 0 16 16" fill="none" xmlns="http://www.w3.org/2000/svg">
<g id="Icons">
<mask id="mask0_2_32217" style="mask-type:alpha" maskUnits="userSpaceOnUse" x="0" y="0" width="16" height="16">
<rect id="Bounding box" width="16" height="16" fill="#D9D9D9"/>
</mask>
<g mask="url(#mask0_2_32217)">
<path id="chat_bubble" d="M1.3335 13.0497V2.66634C1.3335 2.29967 1.46405 1.98579 1.72516 1.72467C1.98627 1.46356 2.30016 1.33301 2.66683 1.33301H13.3335C13.7002 1.33301 14.0141 1.46356 14.2752 1.72467C14.5363 1.98579 14.6668 2.29967 14.6668 2.66634V10.6663C14.6668 11.033 14.5363 11.3469 14.2752 11.608C14.0141 11.8691 13.7002 11.9997 13.3335 11.9997H4.00016L2.46683 13.533C2.25572 13.7441 2.01405 13.7913 1.74183 13.6747C1.46961 13.558 1.3335 13.3497 1.3335 13.0497ZM2.66683 11.4497L3.45016 10.6663H13.3335V2.66634H2.66683V11.4497Z" fill="#3528A5"/>
</g>
</g>
</svg>
