<svg width="20" height="21" fill="none" xmlns="http://www.w3.org/2000/svg"><mask id="a" style="mask-type:alpha" maskUnits="userSpaceOnUse" x="0" y="0" width="20" height="21"><path fill="#D9D9D9" d="M0 .168h20v20H0z"/></mask><g mask="url(#a)"><path d="M10.021 13.501a1.13 1.13 0 0 1-.844-.354 1.02 1.02 0 0 1-.302-.833c.042-.584.18-1.09.417-1.521.236-.43.611-.875 1.125-1.333.57-.5 1.003-.934 1.302-1.302.299-.368.448-.789.448-1.26 0-.57-.191-1.043-.573-1.418-.382-.375-.913-.562-1.594-.562-.444 0-.823.094-1.135.281-.313.188-.566.42-.76.698a1.44 1.44 0 0 1-.72.563 1.164 1.164 0 0 1-1.48-.708.991.991 0 0 1 .074-.897 5.006 5.006 0 0 1 1.625-1.562c.68-.417 1.48-.625 2.396-.625 1.459 0 2.58.406 3.365 1.219.784.812 1.177 1.788 1.177 2.927 0 .694-.15 1.288-.448 1.781-.299.493-.767 1.052-1.406 1.677-.473.445-.806.806-1 1.083a2.458 2.458 0 0 0-.396.959 1.45 1.45 0 0 1-.438.854 1.176 1.176 0 0 1-.833.333Zm-.02 5c-.46 0-.852-.163-1.178-.49a1.605 1.605 0 0 1-.49-1.176c0-.459.164-.851.49-1.177.326-.327.719-.49 1.177-.49.459 0 .85.163 1.177.49.327.326.49.718.49 1.177 0 .458-.163.85-.49 1.177-.326.326-.718.49-1.177.49Z" fill="#434059"/></g></svg>