
<svg width="36" height="40" viewBox="0 0 36 40" fill="none" xmlns="http://www.w3.org/2000/svg">
<path d="M3.13044 39.7521C1.90476 39.7521 1.0766 39.4374 0.645963 38.808C0.215321 38.1786 0 37.483 0 36.7211V3.23039C0 2.46849 0.215321 1.7894 0.645963 1.19312C1.0766 0.563723 1.90476 0.249023 3.13044 0.249023H20.4224C21.648 0.249023 22.294 1.07718 22.3602 2.7335C22.4265 4.42294 21.7805 5.26766 20.4224 5.26766H5.86335V34.7335H21.3168C22.5424 34.7335 23.1718 35.5451 23.205 37.1683C23.2712 38.8908 22.6418 39.7521 21.3168 39.7521H3.13044Z" fill="white"/>
<path d="M35.3129 37.6149C35.3129 39.205 34.3192 40 32.3316 40C30.3771 40 29.3999 39.205 29.3999 37.6149V2.38509C29.3999 0.795031 30.3771 0 32.3316 0C34.3192 0 35.3129 0.795031 35.3129 2.38509V37.6149Z" fill="white"/>
<path d="M17.3417 22.1116C18.1698 21.3165 18.5839 20.3393 18.5839 19.1799C18.5839 18.0205 18.1698 17.0432 17.3417 16.2482C16.5466 15.4532 15.5694 15.0557 14.41 15.0557C13.2837 15.0557 12.323 15.4532 11.528 16.2482C10.733 17.0432 10.3354 18.0205 10.3354 19.1799C10.3354 20.3393 10.733 21.3165 11.528 22.1116C12.323 22.9066 13.2837 23.3041 14.41 23.3041C15.5694 23.3041 16.5466 22.9066 17.3417 22.1116Z" fill="white"/>
</svg>
