<svg width="20" height="21" fill="none" xmlns="http://www.w3.org/2000/svg"><mask id="a" style="mask-type:alpha" maskUnits="userSpaceOnUse" x="0" y="0" width="20" height="21"><path fill="#D9D9D9" d="M0 .168h20v20H0z"/></mask><g mask="url(#a)"><path d="M4.146 17.668a.772.772 0 0 1-.584-.24.826.826 0 0 1-.229-.593c0-.236.08-.434.24-.594.16-.16.357-.24.593-.24h8.354c.237 0 .431.08.584.24.153.16.229.358.229.594s-.08.434-.24.594a.806.806 0 0 1-.593.24H4.146Zm2.708-5.229L4.5 10.085a1.637 1.637 0 0 1-.49-1.177c-.007-.465.15-.858.469-1.177l.604-.604 4.75 4.708-.604.604c-.32.32-.715.48-1.188.48-.472 0-.868-.16-1.187-.48Zm6.479-4.104-4.708-4.75.604-.604c.32-.32.712-.476 1.177-.47.465.008.858.171 1.177.49l2.354 2.355c.32.32.48.715.48 1.187 0 .472-.16.868-.48 1.188l-.604.604Zm3.25 7.916L6.291 5.96l1.167-1.167L17.77 15.106a.743.743 0 0 1 .22.573.814.814 0 0 1-.24.572.79.79 0 0 1-.584.23.79.79 0 0 1-.583-.23Z" fill="#fff"/></g></svg>