
<svg width="195" height="244" viewBox="0 0 195 244" fill="none" xmlns="http://www.w3.org/2000/svg">
<g clip-path="url(#clip0_633_46817)">
<path d="M-74.7232 157.643L-66.7492 145.291C-58.6798 133.294 -42.875 108.054 -24.2774 93.2359C-5.77536 78.062 15.2808 72.42 43.9753 95.2848C72.6699 118.15 109.003 169.521 136.432 187.665C163.766 205.452 182.435 190.901 195.782 156.485C209.271 122.604 217.437 68.8565 221.688 42.6065L225.842 16.0002L286.949 244.055L276.421 246.876C265.893 249.697 244.837 255.339 223.781 260.981C202.725 266.623 181.669 272.265 160.612 277.906C139.556 283.548 118.5 289.19 97.444 294.832C76.3878 300.474 55.3316 306.116 34.2755 311.758C13.2193 317.4 -7.83683 323.042 -18.3649 325.863L-28.893 328.684L-74.7232 157.643Z" fill="white" fill-opacity="0.1"/>
</g>
<g clip-path="url(#clip1_633_46817)">
<path d="M-18.9956 218.35L-12.3739 203.902C-5.75222 189.454 7.4912 160.559 27.5668 159.97C47.7156 159.684 74.5134 186.946 92.7023 178.54C110.891 170.134 120.105 124.544 135.363 103.996C150.621 83.4487 171.558 86.4262 197.568 110.425C223.505 134.119 254.332 178.076 269.746 200.055L285.16 222.033L296.883 270.601L287.33 272.907C277.778 275.212 258.673 279.824 239.568 284.435C220.464 289.046 201.359 293.657 182.254 298.269C163.149 302.88 144.044 307.491 124.94 312.102C105.835 316.714 86.7302 321.325 67.6254 325.936C48.5207 330.547 29.4159 335.159 19.8635 337.464L10.3111 339.77L-18.9956 218.35Z" fill="white" fill-opacity="0.1"/>
</g>
<defs>
<clipPath id="clip0_633_46817">
<rect y="68" width="195" height="176" rx="8" fill="white"/>
</clipPath>
<clipPath id="clip1_633_46817">
<rect y="79" width="195" height="165" rx="8" fill="white"/>
</clipPath>
</defs>
</svg>
