
<svg width="195" height="244" viewBox="0 0 195 244" fill="none" xmlns="http://www.w3.org/2000/svg">
<g clip-path="url(#clip0_633_46818)">
<path d="M0 221.111L9 213.458C18 206.09 36 190.354 54 163.889C72 137.424 90 98.7986 108 99.0132C126 98.7986 144 137.424 162 163.889C180 190.354 198 206.09 216 182.987C234 160.312 252 98.7986 261 68.5424L270 38V244H261C252 244 234 244 216 244C198 244 180 244 162 244C144 244 126 244 108 244C90 244 72 244 54 244C36 244 18 244 9 244H0V221.111Z" fill="white" fill-opacity="0.1"/>
</g>
<g clip-path="url(#clip1_633_46818)">
<path d="M-18.9956 218.35L-12.3739 203.902C-5.75221 189.454 7.4912 160.559 27.5668 159.97C47.7156 159.684 74.5134 186.946 92.7023 178.54C110.891 170.134 120.105 124.544 135.363 103.996C150.621 83.4487 171.558 86.4262 197.568 110.425C223.505 134.119 254.332 178.076 269.746 200.055L285.16 222.033L296.883 270.601L287.33 272.907C277.778 275.212 258.673 279.824 239.568 284.435C220.464 289.046 201.359 293.657 182.254 298.269C163.149 302.88 144.044 307.491 124.94 312.102C105.835 316.714 86.7302 321.325 67.6254 325.936C48.5207 330.547 29.4159 335.159 19.8635 337.464L10.3111 339.77L-18.9956 218.35Z" fill="white" fill-opacity="0.1"/>
</g>
<defs>
<clipPath id="clip0_633_46818">
<rect y="79" width="195" height="165" rx="8" fill="white"/>
</clipPath>
<clipPath id="clip1_633_46818">
<rect y="79" width="195" height="165" rx="8" fill="white"/>
</clipPath>
</defs>
</svg>
